# 3ds Max Wavefront OBJ Exporter v0.99 - (c)2007 guruware
# File Created: 31.08.2026 22:23:44

mtllib Door_Right.mtl

#
# object Object001
#

v  -0.0274 0.2847 0.0488
v  -0.0243 0.2847 0.0490
v  -0.0240 0.2816 0.0490
v  -0.0270 0.2810 0.0488
v  -0.0304 0.2916 0.0488
v  -0.0276 0.2928 0.0490
v  -0.0261 0.2901 0.0490
v  -0.0285 0.2883 0.0488
v  -0.0360 0.2966 0.0488
v  -0.0340 0.2988 0.0490
v  -0.0314 0.2970 0.0490
v  -0.0329 0.2944 0.0488
v  -0.0431 0.2989 0.0488
v  -0.0422 0.3018 0.0490
v  -0.0391 0.3011 0.0490
v  -0.0394 0.2981 0.0488
v  -0.0506 0.2981 0.0488
v  -0.0509 0.3011 0.0490
v  -0.0478 0.3018 0.0490
v  -0.0469 0.2989 0.0488
v  -0.0571 0.2944 0.0488
v  -0.0586 0.2970 0.0490
v  -0.0561 0.2988 0.0490
v  -0.0540 0.2966 0.0488
v  -0.0615 0.2883 0.0488
v  -0.0639 0.2901 0.0490
v  -0.0624 0.2928 0.0490
v  -0.0596 0.2916 0.0488
v  -0.0630 0.2810 0.0488
v  -0.0660 0.2816 0.0490
v  -0.0657 0.2847 0.0490
v  -0.0626 0.2847 0.0488
v  -0.0615 0.2736 0.0488
v  -0.0644 0.2730 0.0490
v  -0.0654 0.2760 0.0490
v  -0.0626 0.2772 0.0488
v  -0.0571 0.2676 0.0488
v  -0.0595 0.2658 0.0490
v  -0.0616 0.2681 0.0490
v  -0.0596 0.2704 0.0488
v  -0.0506 0.2638 0.0488
v  -0.0521 0.2612 0.0490
v  -0.0549 0.2625 0.0490
v  -0.0540 0.2653 0.0488
v  -0.0431 0.2630 0.0488
v  -0.0434 0.2600 0.0490
v  -0.0466 0.2600 0.0490
v  -0.0469 0.2630 0.0488
v  -0.0360 0.2653 0.0488
v  -0.0351 0.2625 0.0490
v  -0.0379 0.2612 0.0490
v  -0.0394 0.2638 0.0488
v  -0.0304 0.2704 0.0488
v  -0.0284 0.2681 0.0490
v  -0.0305 0.2658 0.0490
v  -0.0329 0.2676 0.0488
v  -0.0274 0.2772 0.0488
v  -0.0246 0.2760 0.0490
v  -0.0256 0.2730 0.0490
v  -0.0285 0.2736 0.0488
v  -0.0277 0.2810 0.0488
v  -0.0281 0.2846 0.0488
v  -0.0292 0.2880 0.0488
v  -0.0310 0.2911 0.0488
v  -0.0334 0.2938 0.0488
v  -0.0364 0.2959 0.0488
v  -0.0397 0.2974 0.0488
v  -0.0432 0.2982 0.0488
v  -0.0468 0.2982 0.0488
v  -0.0503 0.2974 0.0488
v  -0.0537 0.2959 0.0488
v  -0.0566 0.2938 0.0488
v  -0.0590 0.2911 0.0488
v  -0.0608 0.2880 0.0488
v  -0.0619 0.2846 0.0488
v  -0.0623 0.2810 0.0488
v  -0.0619 0.2774 0.0488
v  -0.0608 0.2739 0.0488
v  -0.0590 0.2708 0.0488
v  -0.0566 0.2681 0.0488
v  -0.0537 0.2660 0.0488
v  -0.0503 0.2645 0.0488
v  -0.0468 0.2638 0.0488
v  -0.0432 0.2638 0.0488
v  -0.0397 0.2645 0.0488
v  -0.0364 0.2660 0.0488
v  -0.0334 0.2681 0.0488
v  -0.0310 0.2708 0.0488
v  -0.0292 0.2739 0.0488
v  -0.0281 0.2774 0.0488
v  -0.0388 0.2823 0.0488
v  -0.0381 0.2824 0.0488
v  -0.0380 0.2810 0.0488
v  -0.0387 0.2810 0.0488
v  -0.0381 0.2795 0.0488
v  -0.0388 0.2796 0.0488
v  -0.0386 0.2781 0.0488
v  -0.0392 0.2784 0.0488
v  -0.0393 0.2768 0.0488
v  -0.0399 0.2773 0.0488
v  -0.0403 0.2757 0.0488
v  -0.0408 0.2763 0.0488
v  -0.0415 0.2749 0.0488
v  -0.0419 0.2755 0.0488
v  -0.0428 0.2743 0.0488
v  -0.0431 0.2750 0.0488
v  -0.0443 0.2740 0.0488
v  -0.0443 0.2747 0.0488
v  -0.0457 0.2740 0.0488
v  -0.0457 0.2747 0.0488
v  -0.0472 0.2743 0.0488
v  -0.0470 0.2750 0.0488
v  -0.0485 0.2749 0.0488
v  -0.0482 0.2755 0.0488
v  -0.0497 0.2757 0.0488
v  -0.0492 0.2763 0.0488
v  -0.0507 0.2768 0.0488
v  -0.0501 0.2773 0.0488
v  -0.0514 0.2781 0.0488
v  -0.0508 0.2784 0.0488
v  -0.0519 0.2795 0.0488
v  -0.0512 0.2796 0.0488
v  -0.0520 0.2810 0.0488
v  -0.0513 0.2810 0.0488
v  -0.0519 0.2824 0.0488
v  -0.0512 0.2823 0.0488
v  -0.0514 0.2838 0.0488
v  -0.0508 0.2835 0.0488
v  -0.0507 0.2851 0.0488
v  -0.0501 0.2847 0.0488
v  -0.0497 0.2862 0.0488
v  -0.0492 0.2856 0.0488
v  -0.0485 0.2871 0.0488
v  -0.0482 0.2864 0.0488
v  -0.0472 0.2877 0.0488
v  -0.0470 0.2870 0.0488
v  -0.0457 0.2880 0.0488
v  -0.0457 0.2872 0.0488
v  -0.0443 0.2880 0.0488
v  -0.0443 0.2872 0.0488
v  -0.0428 0.2877 0.0488
v  -0.0431 0.2870 0.0488
v  -0.0415 0.2871 0.0488
v  -0.0419 0.2864 0.0488
v  -0.0403 0.2862 0.0488
v  -0.0408 0.2856 0.0488
v  -0.0393 0.2851 0.0488
v  -0.0399 0.2847 0.0488
v  -0.0386 0.2838 0.0488
v  -0.0392 0.2835 0.0488
v  -0.0277 0.2810 0.0492
v  -0.0281 0.2846 0.0492
v  -0.0292 0.2880 0.0492
v  -0.0310 0.2911 0.0492
v  -0.0334 0.2938 0.0492
v  -0.0364 0.2959 0.0492
v  -0.0397 0.2974 0.0492
v  -0.0432 0.2982 0.0492
v  -0.0468 0.2982 0.0492
v  -0.0503 0.2974 0.0492
v  -0.0537 0.2959 0.0492
v  -0.0566 0.2938 0.0492
v  -0.0590 0.2911 0.0492
v  -0.0608 0.2880 0.0492
v  -0.0619 0.2846 0.0492
v  -0.0623 0.2810 0.0492
v  -0.0619 0.2774 0.0492
v  -0.0608 0.2739 0.0492
v  -0.0590 0.2708 0.0492
v  -0.0566 0.2681 0.0492
v  -0.0537 0.2660 0.0492
v  -0.0503 0.2645 0.0492
v  -0.0468 0.2638 0.0492
v  -0.0432 0.2638 0.0492
v  -0.0397 0.2645 0.0492
v  -0.0364 0.2660 0.0492
v  -0.0334 0.2681 0.0492
v  -0.0310 0.2708 0.0492
v  -0.0292 0.2739 0.0492
v  -0.0281 0.2774 0.0492
v  -0.0381 0.2824 0.0492
v  -0.0380 0.2810 0.0492
v  -0.0381 0.2795 0.0492
v  -0.0386 0.2781 0.0492
v  -0.0393 0.2768 0.0492
v  -0.0403 0.2757 0.0492
v  -0.0415 0.2749 0.0492
v  -0.0428 0.2743 0.0492
v  -0.0443 0.2740 0.0492
v  -0.0457 0.2740 0.0492
v  -0.0472 0.2743 0.0492
v  -0.0485 0.2749 0.0492
v  -0.0497 0.2757 0.0492
v  -0.0507 0.2768 0.0492
v  -0.0514 0.2781 0.0492
v  -0.0519 0.2795 0.0492
v  -0.0520 0.2810 0.0492
v  -0.0519 0.2824 0.0492
v  -0.0514 0.2838 0.0492
v  -0.0507 0.2851 0.0492
v  -0.0497 0.2862 0.0492
v  -0.0485 0.2871 0.0492
v  -0.0472 0.2877 0.0492
v  -0.0457 0.2880 0.0492
v  -0.0443 0.2880 0.0492
v  -0.0428 0.2877 0.0492
v  -0.0415 0.2871 0.0492
v  -0.0403 0.2862 0.0492
v  -0.0393 0.2851 0.0492
v  -0.0386 0.2838 0.0492
v  -0.0243 0.2847 0.0526
v  -0.0240 0.2816 0.0526
v  -0.0285 0.2883 0.0528
v  -0.0274 0.2847 0.0528
v  -0.0276 0.2928 0.0526
v  -0.0261 0.2901 0.0526
v  -0.0329 0.2944 0.0528
v  -0.0304 0.2916 0.0528
v  -0.0340 0.2988 0.0526
v  -0.0314 0.2970 0.0526
v  -0.0394 0.2981 0.0528
v  -0.0360 0.2966 0.0528
v  -0.0422 0.3018 0.0526
v  -0.0391 0.3011 0.0526
v  -0.0469 0.2989 0.0528
v  -0.0431 0.2989 0.0528
v  -0.0509 0.3011 0.0526
v  -0.0478 0.3018 0.0526
v  -0.0540 0.2966 0.0528
v  -0.0506 0.2981 0.0528
v  -0.0586 0.2970 0.0526
v  -0.0561 0.2988 0.0526
v  -0.0596 0.2916 0.0528
v  -0.0571 0.2944 0.0528
v  -0.0639 0.2901 0.0526
v  -0.0624 0.2928 0.0526
v  -0.0626 0.2847 0.0528
v  -0.0615 0.2883 0.0528
v  -0.0660 0.2816 0.0526
v  -0.0657 0.2847 0.0526
v  -0.0626 0.2772 0.0528
v  -0.0630 0.2810 0.0528
v  -0.0644 0.2730 0.0526
v  -0.0654 0.2760 0.0526
v  -0.0596 0.2704 0.0528
v  -0.0615 0.2736 0.0528
v  -0.0595 0.2658 0.0526
v  -0.0616 0.2681 0.0526
v  -0.0540 0.2653 0.0528
v  -0.0571 0.2676 0.0528
v  -0.0521 0.2612 0.0526
v  -0.0549 0.2625 0.0526
v  -0.0469 0.2630 0.0528
v  -0.0506 0.2638 0.0528
v  -0.0434 0.2600 0.0526
v  -0.0466 0.2600 0.0526
v  -0.0394 0.2638 0.0528
v  -0.0431 0.2630 0.0528
v  -0.0351 0.2625 0.0526
v  -0.0379 0.2612 0.0526
v  -0.0329 0.2676 0.0528
v  -0.0360 0.2653 0.0528
v  -0.0284 0.2681 0.0526
v  -0.0305 0.2658 0.0526
v  -0.0285 0.2736 0.0528
v  -0.0304 0.2704 0.0528
v  -0.0246 0.2760 0.0526
v  -0.0256 0.2730 0.0526
v  -0.0270 0.2810 0.0528
v  -0.0274 0.2772 0.0528
v  -0.0277 0.2810 0.0525
v  -0.0281 0.2846 0.0525
v  -0.0381 0.2824 0.0525
v  -0.0380 0.2810 0.0525
v  -0.0292 0.2880 0.0525
v  -0.0386 0.2838 0.0525
v  -0.0310 0.2911 0.0525
v  -0.0393 0.2851 0.0525
v  -0.0334 0.2938 0.0525
v  -0.0403 0.2862 0.0525
v  -0.0364 0.2959 0.0525
v  -0.0415 0.2871 0.0525
v  -0.0397 0.2974 0.0525
v  -0.0428 0.2877 0.0525
v  -0.0432 0.2982 0.0525
v  -0.0443 0.2880 0.0525
v  -0.0468 0.2982 0.0525
v  -0.0457 0.2880 0.0525
v  -0.0503 0.2974 0.0525
v  -0.0472 0.2877 0.0525
v  -0.0537 0.2959 0.0525
v  -0.0485 0.2871 0.0525
v  -0.0566 0.2938 0.0525
v  -0.0497 0.2862 0.0525
v  -0.0590 0.2911 0.0525
v  -0.0507 0.2851 0.0525
v  -0.0608 0.2880 0.0525
v  -0.0514 0.2838 0.0525
v  -0.0619 0.2846 0.0525
v  -0.0519 0.2824 0.0525
v  -0.0623 0.2810 0.0525
v  -0.0520 0.2810 0.0525
v  -0.0619 0.2774 0.0525
v  -0.0519 0.2795 0.0525
v  -0.0608 0.2739 0.0525
v  -0.0514 0.2781 0.0525
v  -0.0590 0.2708 0.0525
v  -0.0507 0.2768 0.0525
v  -0.0566 0.2681 0.0525
v  -0.0497 0.2757 0.0525
v  -0.0537 0.2660 0.0525
v  -0.0485 0.2749 0.0525
v  -0.0503 0.2645 0.0525
v  -0.0472 0.2743 0.0525
v  -0.0468 0.2638 0.0525
v  -0.0457 0.2740 0.0525
v  -0.0432 0.2638 0.0525
v  -0.0443 0.2740 0.0525
v  -0.0397 0.2645 0.0525
v  -0.0428 0.2743 0.0525
v  -0.0364 0.2660 0.0525
v  -0.0415 0.2749 0.0525
v  -0.0334 0.2681 0.0525
v  -0.0403 0.2757 0.0525
v  -0.0310 0.2708 0.0525
v  -0.0393 0.2768 0.0525
v  -0.0292 0.2739 0.0525
v  -0.0386 0.2781 0.0525
v  -0.0281 0.2774 0.0525
v  -0.0381 0.2795 0.0525
v  -0.0387 0.2810 0.0528
v  -0.0388 0.2823 0.0528
v  -0.0388 0.2796 0.0528
v  -0.0392 0.2784 0.0528
v  -0.0399 0.2773 0.0528
v  -0.0408 0.2763 0.0528
v  -0.0419 0.2755 0.0528
v  -0.0431 0.2750 0.0528
v  -0.0443 0.2747 0.0528
v  -0.0457 0.2747 0.0528
v  -0.0470 0.2750 0.0528
v  -0.0482 0.2755 0.0528
v  -0.0492 0.2763 0.0528
v  -0.0501 0.2773 0.0528
v  -0.0508 0.2784 0.0528
v  -0.0512 0.2796 0.0528
v  -0.0513 0.2810 0.0528
v  -0.0512 0.2823 0.0528
v  -0.0508 0.2835 0.0528
v  -0.0501 0.2847 0.0528
v  -0.0492 0.2856 0.0528
v  -0.0482 0.2864 0.0528
v  -0.0470 0.2870 0.0528
v  -0.0457 0.2872 0.0528
v  -0.0443 0.2872 0.0528
v  -0.0431 0.2870 0.0528
v  -0.0419 0.2864 0.0528
v  -0.0408 0.2856 0.0528
v  -0.0399 0.2847 0.0528
v  -0.0392 0.2835 0.0528
v  -0.0281 0.2846 0.0528
v  -0.0277 0.2810 0.0528
v  -0.0292 0.2880 0.0528
v  -0.0310 0.2911 0.0528
v  -0.0334 0.2938 0.0528
v  -0.0364 0.2959 0.0528
v  -0.0397 0.2974 0.0528
v  -0.0432 0.2982 0.0528
v  -0.0468 0.2982 0.0528
v  -0.0503 0.2974 0.0528
v  -0.0537 0.2959 0.0528
v  -0.0566 0.2938 0.0528
v  -0.0590 0.2911 0.0528
v  -0.0608 0.2880 0.0528
v  -0.0619 0.2846 0.0528
v  -0.0623 0.2810 0.0528
v  -0.0619 0.2774 0.0528
v  -0.0608 0.2739 0.0528
v  -0.0590 0.2708 0.0528
v  -0.0566 0.2681 0.0528
v  -0.0537 0.2660 0.0528
v  -0.0503 0.2645 0.0528
v  -0.0468 0.2638 0.0528
v  -0.0432 0.2638 0.0528
v  -0.0397 0.2645 0.0528
v  -0.0364 0.2660 0.0528
v  -0.0334 0.2681 0.0528
v  -0.0310 0.2708 0.0528
v  -0.0292 0.2739 0.0528
v  -0.0281 0.2774 0.0528
v  -0.0380 0.2810 0.0528
v  -0.0381 0.2824 0.0528
v  -0.0381 0.2795 0.0528
v  -0.0386 0.2781 0.0528
v  -0.0393 0.2768 0.0528
v  -0.0403 0.2757 0.0528
v  -0.0415 0.2749 0.0528
v  -0.0428 0.2743 0.0528
v  -0.0443 0.2740 0.0528
v  -0.0457 0.2740 0.0528
v  -0.0472 0.2743 0.0528
v  -0.0485 0.2749 0.0528
v  -0.0497 0.2757 0.0528
v  -0.0507 0.2768 0.0528
v  -0.0514 0.2781 0.0528
v  -0.0519 0.2795 0.0528
v  -0.0520 0.2810 0.0528
v  -0.0519 0.2824 0.0528
v  -0.0514 0.2838 0.0528
v  -0.0507 0.2851 0.0528
v  -0.0497 0.2862 0.0528
v  -0.0485 0.2871 0.0528
v  -0.0472 0.2877 0.0528
v  -0.0457 0.2880 0.0528
v  -0.0443 0.2880 0.0528
v  -0.0428 0.2877 0.0528
v  -0.0415 0.2871 0.0528
v  -0.0403 0.2862 0.0528
v  -0.0393 0.2851 0.0528
v  -0.0386 0.2838 0.0528
v  -0.0661 -0.0441 -0.0838
v  -0.0661 0.0441 -0.0838
v  0.1256 0.0441 -0.0838
v  0.1256 -0.0441 -0.0838
v  0.0741 -0.0118 0.0472
v  0.0741 0.0118 0.0472
v  -0.0160 0.0131 0.0472
v  -0.0160 -0.0131 0.0472
v  -0.0775 -0.3090 -0.0838
v  0.1256 -0.3090 -0.0838
v  0.1256 -0.3090 0.0760
v  -0.0775 -0.3090 0.0760
v  0.1256 0.0441 0.0760
v  0.1256 -0.0441 0.0760
v  0.1256 0.3090 -0.0838
v  -0.0775 0.3090 -0.0838
v  -0.0775 0.3090 0.0760
v  0.1256 0.3090 0.0760
v  -0.0661 -0.0441 0.0760
v  -0.0661 0.0441 0.0760
v  -0.1256 0.2207 -0.0838
v  0.1256 0.2207 -0.0838
v  -0.1256 0.1324 -0.0838
v  0.1256 0.1324 -0.0838
v  0.1256 -0.2207 -0.0838
v  -0.1256 -0.2207 -0.0838
v  0.1256 -0.1324 -0.0838
v  -0.1256 -0.1324 -0.0838
v  0.1066 0.2125 0.0448
v  0.1066 0.2833 0.0448
v  -0.0666 0.2833 0.0448
v  -0.1057 0.2082 0.0448
v  0.0653 0.1584 0.0472
v  0.0653 0.1816 0.0472
v  -0.0644 0.1802 0.0472
v  -0.0644 0.1598 0.0472
v  0.1066 0.0425 0.0448
v  0.1066 0.1275 0.0448
v  -0.1057 0.1318 0.0448
v  -0.0485 0.0468 0.0448
v  -0.1057 -0.2082 0.0448
v  -0.0666 -0.2832 0.0448
v  0.1066 -0.2832 0.0448
v  0.1066 -0.2125 0.0448
v  -0.0644 -0.1598 0.0472
v  -0.0644 -0.1802 0.0472
v  0.0653 -0.1816 0.0472
v  0.0653 -0.1584 0.0472
v  -0.0485 -0.0468 0.0448
v  -0.1057 -0.1318 0.0448
v  0.1066 -0.1275 0.0448
v  0.1066 -0.0425 0.0448
v  0.1256 0.2207 0.0760
v  0.1256 0.1324 0.0760
v  0.1256 -0.2207 0.0760
v  0.1256 -0.1324 0.0760
v  -0.1256 -0.2207 0.0760
v  -0.1256 -0.1324 0.0760
v  -0.1256 0.2207 0.0760
v  -0.1256 0.1324 0.0760
v  -0.0735 -0.3024 0.0838
v  0.1188 -0.3024 0.0838
v  0.1106 -0.2942 0.0838
v  -0.0694 -0.2942 0.0838
v  0.1188 -0.2207 0.0838
v  0.1106 -0.2207 0.0838
v  0.1188 -0.1324 0.0838
v  0.1106 -0.1324 0.0838
v  0.1188 -0.0441 0.0838
v  0.1106 -0.0441 0.0838
v  0.1188 0.0441 0.0838
v  0.1106 0.0441 0.0838
v  0.1188 0.1324 0.0838
v  0.1106 0.1324 0.0838
v  0.1188 0.2207 0.0838
v  0.1106 0.2207 0.0838
v  0.1188 0.3024 0.0838
v  0.1106 0.2942 0.0838
v  -0.0735 0.3024 0.0838
v  -0.0694 0.2942 0.0838
v  -0.1188 0.2191 0.0838
v  -0.1106 0.2163 0.0838
v  -0.1188 0.1345 0.0838
v  -0.1106 0.1369 0.0838
v  -0.0594 0.0462 0.0838
v  -0.0511 0.0486 0.0838
v  -0.0594 -0.0462 0.0838
v  -0.0511 -0.0486 0.0838
v  -0.1188 -0.1345 0.0838
v  -0.1106 -0.1369 0.0838
v  -0.1188 -0.2191 0.0838
v  -0.1106 -0.2163 0.0838
v  0.1017 0.0398 0.0584
v  -0.0436 0.0438 0.0584
v  -0.0335 0.0383 0.0584
v  0.0917 0.0348 0.0584
v  -0.0436 -0.0438 0.0584
v  -0.0335 -0.0383 0.0584
v  0.1017 -0.0398 0.0584
v  0.0917 -0.0348 0.0584
v  0.0999 0.2098 0.0584
v  -0.0990 0.2058 0.0584
v  -0.0856 0.2013 0.0584
v  0.0865 0.2048 0.0584
v  -0.0990 0.1343 0.0584
v  -0.0856 0.1388 0.0584
v  0.0999 0.1302 0.0584
v  0.0865 0.1353 0.0584
v  -0.0990 -0.2058 0.0584
v  0.0999 -0.2098 0.0584
v  0.0865 -0.2048 0.0584
v  -0.0856 -0.2013 0.0584
v  0.0999 -0.1302 0.0584
v  0.0865 -0.1353 0.0584
v  -0.0990 -0.1343 0.0584
v  -0.0856 -0.1388 0.0584
v  -0.0298 -0.0362 0.0691
v  -0.0298 0.0362 0.0691
v  0.0879 0.0329 0.0691
v  0.0879 -0.0329 0.0691
v  -0.0805 0.1405 0.0691
v  -0.0805 0.1995 0.0691
v  0.0814 0.2029 0.0691
v  0.0814 0.1372 0.0691
v  0.0814 -0.1372 0.0691
v  0.0814 -0.2029 0.0691
v  -0.0805 -0.1995 0.0691
v  -0.0805 -0.1405 0.0691
v  -0.0220 0.0180 0.0691
v  0.0801 0.0162 0.0691
v  -0.0220 -0.0180 0.0691
v  0.0801 -0.0162 0.0691
v  -0.0727 0.1840 0.0691
v  0.0736 0.1859 0.0691
v  -0.0727 0.1560 0.0691
v  0.0736 0.1541 0.0691
v  0.0736 -0.1859 0.0691
v  -0.0727 -0.1840 0.0691
v  0.0736 -0.1541 0.0691
v  -0.0727 -0.1560 0.0691
v  0.1239 -0.3074 0.0818
v  -0.0765 -0.3074 0.0818
v  0.1239 0.0441 0.0818
v  0.1239 -0.0441 0.0818
v  -0.0765 0.3074 0.0818
v  0.1239 0.3074 0.0818
v  -0.0644 -0.0447 0.0818
v  -0.0644 0.0447 0.0818
v  0.1239 0.2207 0.0818
v  0.1239 0.1324 0.0818
v  0.1239 -0.2207 0.0818
v  0.1239 -0.1324 0.0818
v  -0.1239 -0.2203 0.0818
v  -0.1239 -0.1329 0.0818
v  -0.1239 0.2203 0.0818
v  -0.1239 0.1329 0.0818
# 576 vertices

vn 0.0857 0.0092 -0.9963
vn 0.0851 0.0092 -0.9963
vn 0.0748 0.0460 -0.9961
vn 0.0747 0.0414 -0.9963
vn 0.0741 0.0414 -0.9964
vn 0.0736 0.0460 -0.9962
vn 0.0506 0.0690 -0.9963
vn 0.0506 0.0736 -0.9960
vn 0.0500 0.0690 -0.9964
vn 0.0184 0.0828 -0.9964
vn 0.0178 0.0828 -0.9964
vn -0.0173 0.0828 -0.9964
vn -0.0184 0.0828 -0.9964
vn -0.0506 0.0736 -0.9960
vn -0.0495 0.0690 -0.9964
vn -0.0506 0.0690 -0.9963
vn -0.0748 0.0414 -0.9963
vn -0.0747 0.0414 -0.9963
vn -0.0736 0.0414 -0.9964
vn -0.0851 0.0092 -0.9963
vn -0.0863 0.0092 -0.9962
vn -0.0816 -0.0231 -0.9964
vn -0.0828 -0.0277 -0.9962
vn -0.0817 -0.0277 -0.9963
vn -0.0644 -0.0599 -0.9961
vn -0.0633 -0.0599 -0.9962
vn -0.0633 -0.0553 -0.9965
vn -0.0357 -0.0782 -0.9963
vn -0.0345 -0.0782 -0.9963
vn 0.0000 -0.0874 -0.9962
vn 0.0351 -0.0828 -0.9960
vn 0.0350 -0.0828 -0.9960
vn 0.0350 -0.0782 -0.9963
vn 0.0351 -0.0782 -0.9963
vn 0.0633 -0.0553 -0.9965
vn 0.0638 -0.0599 -0.9962
vn 0.0633 -0.0599 -0.9962
vn 0.0816 -0.0277 -0.9963
vn 0.0817 -0.0277 -0.9963
vn 0.0817 -0.0231 -0.9964
vn 0.0000 0.0000 -1.0000
vn 0.0011 0.0000 -1.0000
vn 0.0006 0.0000 -1.0000
vn 0.0000 0.0046 -1.0000
vn 0.0006 0.0046 -1.0000
vn -0.0011 0.0046 -1.0000
vn -0.0011 0.0000 -1.0000
vn 0.0000 -0.0046 -1.0000
vn 0.0006 -0.0046 -1.0000
vn -1.0000 0.0000 -0.0000
vn -0.9783 -0.2071 -0.0000
vn -0.9144 -0.4049 -0.0000
vn -0.8109 -0.5852 -0.0000
vn -0.6679 -0.7443 -0.0000
vn -0.5007 -0.8656 -0.0000
vn -0.3085 -0.9512 -0.0000
vn -0.1048 -0.9945 -0.0000
vn 0.1048 -0.9945 -0.0000
vn 0.3090 -0.9511 -0.0000
vn 0.4999 -0.8661 -0.0000
vn 0.6705 -0.7419 -0.0000
vn 0.8105 -0.5857 -0.0000
vn 0.9142 -0.4053 -0.0000
vn 0.9783 -0.2071 -0.0000
vn 1.0000 0.0000 -0.0000
vn 0.9783 0.2071 -0.0000
vn 0.9144 0.4049 -0.0000
vn 0.8083 0.5888 -0.0000
vn 0.6705 0.7419 -0.0000
vn 0.4979 0.8673 -0.0000
vn 0.3079 0.9514 -0.0000
vn 0.1043 0.9945 -0.0000
vn -0.1043 0.9945 -0.0000
vn -0.3103 0.9506 -0.0000
vn -0.5003 0.8659 -0.0000
vn -0.6679 0.7443 -0.0000
vn -0.8087 0.5882 -0.0000
vn -0.9127 0.4087 -0.0000
vn -0.9126 0.4089 -0.0000
vn -0.9784 0.2069 -0.0000
vn 0.9125 -0.4091 -0.0000
vn 0.8087 -0.5882 -0.0000
vn 0.6682 -0.7440 -0.0000
vn 0.5007 -0.8656 -0.0000
vn 0.1043 -0.9945 -0.0000
vn 0.1031 -0.9947 -0.0000
vn -0.3090 -0.9511 -0.0000
vn -0.4999 -0.8661 -0.0000
vn -0.6682 -0.7440 -0.0000
vn -0.8083 -0.5888 -0.0000
vn -0.9142 -0.4053 -0.0000
vn -0.9774 -0.2113 -0.0000
vn -0.9774 -0.2115 -0.0000
vn -0.9774 0.2115 -0.0000
vn -0.9774 0.2113 -0.0000
vn -0.9142 0.4053 -0.0000
vn -0.8083 0.5888 -0.0000
vn -0.6705 0.7419 -0.0000
vn -0.5007 0.8656 -0.0000
vn -0.3079 0.9514 -0.0000
vn -0.1048 0.9945 -0.0000
vn 0.1048 0.9945 -0.0000
vn 0.3103 0.9506 -0.0000
vn 0.5007 0.8656 -0.0000
vn 0.8086 0.5884 -0.0000
vn 0.9142 0.4053 -0.0000
vn 0.9944 0.1057 -0.0000
vn 0.9499 0.3126 -0.0000
vn 0.8654 0.5011 -0.0000
vn 0.8674 0.4976 -0.0000
vn 0.7418 0.6706 -0.0000
vn 0.7421 0.6703 -0.0000
vn 0.5874 0.8093 -0.0000
vn 0.4080 0.9130 -0.0000
vn 0.4063 0.9137 -0.0000
vn 0.4076 0.9132 -0.0000
vn 0.2073 0.9783 -0.0000
vn 0.2088 0.9780 -0.0000
vn 0.2078 0.9782 -0.0000
vn 0.2082 0.9781 -0.0000
vn 0.0000 1.0000 -0.0000
vn -0.2088 0.9780 -0.0000
vn -0.2078 0.9782 -0.0000
vn -0.4071 0.9134 -0.0000
vn -0.5896 0.8077 -0.0000
vn -0.5866 0.8098 -0.0000
vn -0.7423 0.6700 -0.0000
vn -0.7441 0.6681 -0.0000
vn -0.8654 0.5011 -0.0000
vn -0.9513 0.3082 -0.0000
vn -0.9499 0.3124 -0.0000
vn -0.9944 0.1059 -0.0000
vn -0.9944 -0.1059 -0.0000
vn -0.9949 -0.1013 -0.0000
vn -0.9513 -0.3082 -0.0000
vn -0.8674 -0.4976 -0.0000
vn -0.7418 -0.6706 -0.0000
vn -0.5874 -0.8093 -0.0000
vn -0.4080 -0.9130 -0.0000
vn -0.4054 -0.9141 -0.0000
vn -0.2078 -0.9782 -0.0000
vn -0.2067 -0.9784 -0.0000
vn 0.0000 -1.0000 -0.0000
vn 0.2067 -0.9784 -0.0000
vn 0.2078 -0.9782 -0.0000
vn 0.4059 -0.9139 -0.0000
vn 0.5874 -0.8093 -0.0000
vn 0.7418 -0.6706 -0.0000
vn 0.7421 -0.6703 -0.0000
vn 0.8654 -0.5011 -0.0000
vn 0.9513 -0.3084 -0.0000
vn 0.9513 -0.3082 -0.0000
vn 0.9944 -0.1059 -0.0000
vn 0.0029 1.0000 -0.0000
vn 0.0035 1.0000 -0.0000
vn 0.0857 0.0092 0.9963
vn 0.0851 0.0092 0.9963
vn 0.0856 0.0092 0.9963
vn 0.2100 -0.9777 -0.0000
vn 0.2106 -0.9776 -0.0000
vn 0.5911 -0.8066 -0.0000
vn 0.5889 -0.8082 -0.0000
vn -0.4035 0.9150 -0.0000
vn 0.0747 0.0460 0.9961
vn 0.0735 0.0460 0.9962
vn 0.0742 0.0414 0.9964
vn 0.0748 0.0414 0.9963
vn 0.8678 -0.4969 -0.0000
vn 0.8677 -0.4971 -0.0000
vn -0.7411 0.6714 -0.0000
vn 0.0506 0.0690 0.9963
vn 0.0500 0.0690 0.9964
vn 0.0505 0.0734 0.9960
vn 0.9949 -0.1013 -0.0000
vn -0.9498 0.3128 -0.0000
vn -0.9512 0.3086 -0.0000
vn 0.0184 0.0828 0.9964
vn 0.0178 0.0828 0.9964
vn 0.0184 0.0874 0.9960
vn 0.9498 0.3128 -0.0000
vn 0.9512 0.3086 -0.0000
vn -0.9949 -0.1011 -0.0000
vn -0.0173 0.0828 0.9964
vn -0.0172 0.0874 0.9960
vn -0.0184 0.0828 0.9964
vn 0.7413 0.6712 -0.0000
vn -0.8679 -0.4967 -0.0000
vn -0.8677 -0.4971 -0.0000
vn -0.0505 0.0734 0.9960
vn -0.0505 0.0690 0.9963
vn -0.0495 0.0690 0.9964
vn 0.4061 0.9138 -0.0000
vn 0.4035 0.9150 -0.0000
vn -0.5890 -0.8082 -0.0000
vn -0.5911 -0.8066 -0.0000
vn -0.0747 0.0414 0.9963
vn -0.0736 0.0414 0.9964
vn -0.0748 0.0414 0.9963
vn -0.0034 1.0000 -0.0000
vn -0.0023 1.0000 -0.0000
vn -0.2100 -0.9777 -0.0000
vn -0.2109 -0.9775 -0.0000
vn -0.0851 0.0092 0.9963
vn -0.0863 0.0092 0.9962
vn -0.0850 0.0092 0.9963
vn -0.4083 0.9129 -0.0000
vn -0.4100 0.9121 -0.0000
vn 0.2065 -0.9784 -0.0000
vn 0.2045 -0.9789 -0.0000
vn -0.0817 -0.0231 0.9964
vn -0.0816 -0.0277 0.9963
vn -0.0827 -0.0277 0.9962
vn -0.7451 0.6670 -0.0000
vn 0.5837 -0.8119 -0.0000
vn -0.0644 -0.0599 0.9961
vn -0.0633 -0.0553 0.9965
vn -0.0633 -0.0599 0.9962
vn -0.9514 0.3080 -0.0000
vn 0.8649 -0.5020 -0.0000
vn 0.8651 -0.5016 -0.0000
vn -0.0356 -0.0782 0.9963
vn -0.0345 -0.0782 0.9963
vn -0.9939 -0.1104 -0.0000
vn 0.9939 -0.1104 -0.0000
vn 0.9939 -0.1102 -0.0000
vn 0.9944 -0.1057 -0.0000
vn 0.0000 -0.0874 0.9962
vn -0.8630 -0.5053 -0.0000
vn 0.9527 0.3038 -0.0000
vn 0.0351 -0.0828 0.9960
vn 0.0350 -0.0782 0.9963
vn 0.0351 -0.0782 0.9963
vn -0.5837 -0.8120 -0.0000
vn 0.7451 0.6670 -0.0000
vn 0.0633 -0.0553 0.9965
vn 0.0633 -0.0599 0.9962
vn 0.0638 -0.0599 0.9962
vn -0.2045 -0.9789 -0.0000
vn -0.2060 -0.9786 -0.0000
vn 0.4095 0.9123 -0.0000
vn 0.4100 0.9121 -0.0000
vn 0.0817 -0.0277 0.9963
vn 0.0816 -0.0277 0.9963
vn 0.0006 0.0000 1.0000
vn 0.0011 0.0000 1.0000
vn 0.0000 0.0000 1.0000
vn 0.0000 0.0046 1.0000
vn -0.0011 0.0000 1.0000
vn 0.0000 -0.0046 1.0000
vn -0.9783 0.2071 -0.0000
vn -0.9125 0.4091 -0.0000
vn -0.8086 0.5884 -0.0000
vn -0.6682 0.7440 -0.0000
vn -0.6675 0.7446 -0.0000
vn -0.3090 0.9511 -0.0000
vn 0.3090 0.9511 -0.0000
vn 0.4999 0.8661 -0.0000
vn 0.8087 0.5882 -0.0000
vn 0.9784 0.2069 -0.0000
vn 0.9784 -0.2069 -0.0000
vn 0.9144 -0.4049 -0.0000
vn 0.8083 -0.5888 -0.0000
vn -0.3079 -0.9514 -0.0000
vn -0.6705 -0.7419 -0.0000
vn -0.8086 -0.5884 -0.0000
vn -0.9143 -0.4051 -0.0000
vn 0.0006 0.0046 1.0000
vn -0.0011 0.0046 1.0000
vn 0.0006 -0.0046 1.0000
vn -0.9127 -0.4087 -0.0000
vn 0.8086 -0.5884 -0.0000
vn -0.0000 0.0000 -1.0000
vn -0.0000 -0.0000 1.0000
vn 0.0000 -0.9921 0.1252
vn 0.0000 -0.9914 0.1306
vn 0.9902 -0.0000 0.1398
vn 0.0000 1.0000 0.0000
vn 0.0000 0.9914 0.1306
vn 0.0000 0.9921 0.1252
vn -0.9564 -0.2920 0.0000
vn -0.9564 0.2920 -0.0000
vn -0.9456 0.2889 0.1496
vn -0.9456 -0.2889 0.1496
vn 0.0000 -0.0000 1.0000
vn 0.9919 -0.0000 0.1268
vn -0.9691 -0.2468 -0.0000
vn -0.8782 -0.4782 -0.0000
vn -0.8705 -0.4741 0.1320
vn -0.9595 -0.2442 0.1407
vn -0.9468 0.2889 0.1418
vn -0.9595 0.2442 0.1407
vn -0.8705 0.4741 0.1320
vn -0.8782 0.4782 -0.0000
vn -0.9691 0.2468 -0.0000
vn -0.9468 -0.2889 0.1418
vn -0.1078 -0.1833 0.9771
vn 0.1384 -0.1406 0.9803
vn -0.0000 0.0000 1.0000
vn 0.1830 -0.0000 0.9831
vn 0.1384 0.1406 0.9803
vn -0.1078 0.1833 0.9771
vn -0.1987 0.0508 0.9787
vn -0.1986 -0.0610 0.9782
vn -0.1373 -0.0418 0.9896
vn -0.1373 0.0418 0.9896
vn -0.1986 0.0610 0.9782
vn -0.1987 -0.0508 0.9787
vn 0.0000 0.9627 0.2707
vn -0.9950 -0.0000 0.1001
vn -0.9950 0.0000 0.1001
vn -0.0000 -0.9627 0.2707
vn 0.9509 -0.2593 0.1687
vn 0.9610 0.2632 0.0847
vn 0.9445 0.3199 0.0752
vn 0.9642 -0.2108 0.1609
vn 0.9517 0.3031 0.0498
vn 0.9585 0.2804 0.0513
vn 0.9517 -0.3031 0.0498
vn 0.9585 -0.2804 0.0513
vn 0.9610 -0.2632 0.0847
vn 0.9445 -0.3199 0.0752
vn 0.9509 0.2593 0.1687
vn 0.9642 0.2108 0.1609
vn -0.9433 -0.0000 0.3319
vn 0.9433 -0.0000 0.3319
vn -0.9047 -0.0000 0.4261
vn 0.9047 -0.0000 0.4261
vn 0.9649 -0.0000 0.2626
vn -0.9649 -0.0000 0.2626
vn 0.9358 -0.0000 0.3526
vn -0.9358 -0.0000 0.3526
vn 0.0000 -0.9618 0.2738
vn 0.9609 -0.0000 0.2769
vn 0.0000 0.9618 0.2738
vn -0.9160 0.2793 0.2880
vn -0.9160 -0.2793 0.2880
vn -0.8441 -0.4596 0.2762
vn -0.9289 -0.2368 0.2847
vn -0.9158 0.2799 0.2880
vn -0.9289 0.2368 0.2847
vn -0.8441 0.4596 0.2762
vn -0.9158 -0.2799 0.2880
vn -0.1622 -0.2721 0.9485
vn 0.1873 -0.1867 0.9644
vn 0.3598 -0.0000 0.9330
vn 0.3598 0.0000 0.9330
vn 0.1873 0.1867 0.9644
vn -0.1622 0.2721 0.9485
vn -0.3397 0.0862 0.9366
vn -0.3315 -0.1009 0.9380
vn -0.3313 -0.1017 0.9380
vn -0.3313 0.1017 0.9380
vn -0.3315 0.1009 0.9380
vn -0.3397 -0.0862 0.9366
vn 0.8682 -0.4555 0.1970
vn 0.8682 0.4555 0.1970
vn 0.0278 0.9828 0.1828
vn 0.0278 -0.9828 0.1828
vn -0.0203 0.9860 0.1657
vn -0.0203 -0.9860 0.1657
vn -0.0165 -0.9783 0.2067
vn -0.0165 0.9783 0.2067
vn 0.0119 -0.9832 0.1819
vn 0.0119 0.9832 0.1819
vn 0.0272 0.9786 0.2041
vn -0.9402 -0.0000 0.3405
vn 0.0272 -0.9786 0.2041
vn 0.9402 -0.0000 0.3405
vn -0.0200 0.9825 0.1851
vn -0.8959 -0.0000 0.4442
vn -0.0200 -0.9825 0.1851
vn 0.8959 -0.0000 0.4442
# 372 vertex normals

vt 0.3608 0.4267 0.0000
vt 0.3552 0.3745 0.0000
vt 0.3013 0.3745 0.0000
vt 0.2957 0.4267 0.0000
vt 0.0663 0.2837 0.0000
vt 0.0607 0.2316 0.0000
vt 0.0068 0.2316 0.0000
vt 0.0012 0.2837 0.0000
vt 0.9584 0.1173 0.0000
vt 0.9528 0.0651 0.0000
vt 0.8989 0.0651 0.0000
vt 0.8933 0.1173 0.0000
vt 0.3356 0.3539 0.0000
vt 0.3300 0.3017 0.0000
vt 0.2761 0.3017 0.0000
vt 0.2705 0.3539 0.0000
vt 0.1344 0.3004 0.0000
vt 0.1288 0.2482 0.0000
vt 0.0749 0.2482 0.0000
vt 0.0693 0.3004 0.0000
vt 0.6352 0.0976 0.0000
vt 0.6296 0.0454 0.0000
vt 0.5757 0.0454 0.0000
vt 0.5701 0.0976 0.0000
vt 0.2160 0.3004 0.0000
vt 0.2103 0.2482 0.0000
vt 0.1565 0.2482 0.0000
vt 0.1509 0.3004 0.0000
vt 0.5287 0.2973 0.0000
vt 0.5230 0.2451 0.0000
vt 0.4692 0.2451 0.0000
vt 0.4635 0.2973 0.0000
vt 0.3059 0.2904 0.0000
vt 0.3002 0.2382 0.0000
vt 0.2464 0.2382 0.0000
vt 0.2407 0.2904 0.0000
vt 0.4188 0.3223 0.0000
vt 0.4132 0.2701 0.0000
vt 0.3593 0.2701 0.0000
vt 0.3537 0.3223 0.0000
vt 0.0052 0.5353 0.0000
vt 0.0195 0.5353 0.0000
vt 0.0195 0.6065 0.0000
vt 0.0052 0.6065 0.0000
vt 0.0195 0.6778 0.0000
vt 0.0052 0.6778 0.0000
vt 0.0195 0.7491 0.0000
vt 0.0052 0.7491 0.0000
vt 0.0195 0.8204 0.0000
vt 0.0052 0.8204 0.0000
vt 0.0195 0.8932 0.0000
vt 0.0052 0.8932 0.0000
vt 0.0195 0.3948 0.0000
vt 0.0052 0.3948 0.0000
vt 0.0052 0.4648 0.0000
vt 0.0195 0.4648 0.0000
vt 0.0052 0.5362 0.0000
vt 0.0195 0.5362 0.0000
vt 0.0052 0.6076 0.0000
vt 0.0195 0.6076 0.0000
vt 0.0052 0.6790 0.0000
vt 0.0195 0.6790 0.0000
vt 0.0052 0.7504 0.0000
vt 0.0195 0.7504 0.0000
vt 0.0052 0.8218 0.0000
vt 0.0195 0.8218 0.0000
vt 0.0195 0.3214 0.0000
vt 0.0052 0.3214 0.0000
vt 0.0052 0.3928 0.0000
vt 0.0195 0.3928 0.0000
vt 0.0052 0.4642 0.0000
vt 0.0195 0.4642 0.0000
vt 0.0052 0.5357 0.0000
vt 0.0195 0.5357 0.0000
vt 0.0052 0.6071 0.0000
vt 0.0195 0.6071 0.0000
vt 0.0052 0.6785 0.0000
vt 0.0195 0.6785 0.0000
vt 0.0052 0.7499 0.0000
vt 0.0195 0.7499 0.0000
vt 0.0052 0.8213 0.0000
vt 0.0195 0.8213 0.0000
vt 0.0052 0.3938 0.0000
vt 0.0195 0.3938 0.0000
vt 0.0195 0.4647 0.0000
vt 0.0052 0.4647 0.0000
vt 0.0195 0.3927 0.0000
vt 0.0052 0.3927 0.0000
vt 0.0195 0.4640 0.0000
vt 0.0052 0.4640 0.0000
vt 0.0518 0.6203 0.0000
vt 0.0357 0.6203 0.0000
vt 0.0357 0.6507 0.0000
vt 0.0518 0.6507 0.0000
vt 0.0357 0.6810 0.0000
vt 0.0518 0.6810 0.0000
vt 0.0357 0.7114 0.0000
vt 0.0518 0.7114 0.0000
vt 0.0357 0.7417 0.0000
vt 0.0518 0.7417 0.0000
vt 0.0357 0.7721 0.0000
vt 0.0518 0.7721 0.0000
vt 0.0357 0.8024 0.0000
vt 0.0518 0.8024 0.0000
vt 0.0357 0.8328 0.0000
vt 0.0518 0.8328 0.0000
vt 0.0357 0.8631 0.0000
vt 0.0518 0.8631 0.0000
vt 0.0357 0.8929 0.0000
vt 0.0518 0.8929 0.0000
vt 0.0357 0.4365 0.0000
vt 0.0518 0.4365 0.0000
vt 0.0518 0.4686 0.0000
vt 0.0357 0.4686 0.0000
vt 0.0518 0.4989 0.0000
vt 0.0357 0.4989 0.0000
vt 0.0518 0.5293 0.0000
vt 0.0357 0.5293 0.0000
vt 0.0518 0.5596 0.0000
vt 0.0357 0.5596 0.0000
vt 0.0518 0.5900 0.0000
vt 0.0357 0.5900 0.0000
vt 0.0244 0.3735 0.0000
vt 0.0316 0.3735 0.0000
vt 0.0316 0.4481 0.0000
vt 0.0244 0.4481 0.0000
vt 0.0316 0.5226 0.0000
vt 0.0244 0.5226 0.0000
vt 0.0316 0.5970 0.0000
vt 0.0244 0.5970 0.0000
vt 0.0316 0.6712 0.0000
vt 0.0244 0.6712 0.0000
vt 0.0316 0.7453 0.0000
vt 0.0244 0.7453 0.0000
vt 0.0316 0.8192 0.0000
vt 0.0244 0.8192 0.0000
vt 0.0316 0.8930 0.0000
vt 0.0244 0.8930 0.0000
vt 0.0244 0.3744 0.0000
vt 0.0316 0.3744 0.0000
vt 0.0316 0.4482 0.0000
vt 0.0244 0.4482 0.0000
vt 0.0316 0.5220 0.0000
vt 0.0244 0.5220 0.0000
vt 0.0316 0.5960 0.0000
vt 0.0244 0.5960 0.0000
vt 0.0316 0.6700 0.0000
vt 0.0244 0.6700 0.0000
vt 0.0316 0.7443 0.0000
vt 0.0244 0.7443 0.0000
vt 0.0316 0.8187 0.0000
vt 0.0244 0.8187 0.0000
vt 0.0316 0.8932 0.0000
vt 0.0244 0.8932 0.0000
vt 0.0244 0.2989 0.0000
vt 0.0316 0.2989 0.0000
vt 0.0316 0.6713 0.0000
vt 0.0244 0.6713 0.0000
vt 0.0316 0.8931 0.0000
vt 0.0244 0.8931 0.0000
vt 0.0244 0.3745 0.0000
vt 0.0316 0.3745 0.0000
vt 0.0316 0.5221 0.0000
vt 0.0244 0.5221 0.0000
vt 0.0316 0.6701 0.0000
vt 0.0244 0.6701 0.0000
vt 0.0244 0.4270 0.0000
vt 0.0316 0.4270 0.0000
vt 0.0316 0.3965 0.0000
vt 0.0244 0.3965 0.0000
vt 0.0316 0.3659 0.0000
vt 0.0244 0.3659 0.0000
vt 0.0244 0.8220 0.0000
vt 0.0316 0.8220 0.0000
vt 0.0316 0.7915 0.0000
vt 0.0244 0.7915 0.0000
vt 0.0316 0.7610 0.0000
vt 0.0244 0.7610 0.0000
vt 0.0316 0.7306 0.0000
vt 0.0244 0.7306 0.0000
vt 0.0316 0.7002 0.0000
vt 0.0244 0.7002 0.0000
vt 0.0316 0.6699 0.0000
vt 0.0244 0.6699 0.0000
vt 0.0316 0.6397 0.0000
vt 0.0244 0.6397 0.0000
vt 0.0316 0.6094 0.0000
vt 0.0244 0.6094 0.0000
vt 0.0316 0.5792 0.0000
vt 0.0244 0.5792 0.0000
vt 0.0316 0.5489 0.0000
vt 0.0244 0.5489 0.0000
vt 0.0316 0.5185 0.0000
vt 0.0244 0.5185 0.0000
vt 0.0316 0.4881 0.0000
vt 0.0244 0.4881 0.0000
vt 0.0316 0.4576 0.0000
vt 0.0244 0.4576 0.0000
vt 0.1288 0.6476 0.0000
vt 0.1762 0.6476 0.0000
vt 0.1762 0.7063 0.0000
vt 0.1288 0.7063 0.0000
vt 0.2222 0.6476 0.0000
vt 0.2795 0.6476 0.0000
vt 0.2795 0.7063 0.0000
vt 0.2222 0.7063 0.0000
vt 0.3256 0.6476 0.0000
vt 0.3730 0.6476 0.0000
vt 0.3730 0.7063 0.0000
vt 0.3256 0.7063 0.0000
vt 0.4191 0.6476 0.0000
vt 0.4764 0.6476 0.0000
vt 0.4764 0.7063 0.0000
vt 0.4191 0.7063 0.0000
vt 0.5225 0.6476 0.0000
vt 0.5700 0.6476 0.0000
vt 0.5700 0.7063 0.0000
vt 0.5225 0.7063 0.0000
vt 0.6161 0.6476 0.0000
vt 0.6736 0.6476 0.0000
vt 0.6736 0.7063 0.0000
vt 0.6161 0.7063 0.0000
vt 0.7197 0.6476 0.0000
vt 0.7673 0.6476 0.0000
vt 0.7673 0.7063 0.0000
vt 0.7197 0.7063 0.0000
vt 0.8135 0.6476 0.0000
vt 0.8710 0.6476 0.0000
vt 0.8710 0.7063 0.0000
vt 0.8135 0.7063 0.0000
vt 0.0859 0.9223 0.0000
vt 0.1416 0.9223 0.0000
vt 0.1416 0.9910 0.0000
vt 0.0859 0.9910 0.0000
vt 0.1958 0.9223 0.0000
vt 0.2632 0.9223 0.0000
vt 0.2632 0.9910 0.0000
vt 0.1958 0.9910 0.0000
vt 0.3174 0.9223 0.0000
vt 0.3733 0.9223 0.0000
vt 0.3733 0.9910 0.0000
vt 0.3174 0.9910 0.0000
vt 0.4276 0.9223 0.0000
vt 0.4952 0.9223 0.0000
vt 0.4952 0.9910 0.0000
vt 0.4276 0.9910 0.0000
vt 0.5495 0.9223 0.0000
vt 0.6055 0.9223 0.0000
vt 0.6055 0.9910 0.0000
vt 0.5495 0.9910 0.0000
vt 0.6600 0.9223 0.0000
vt 0.7278 0.9223 0.0000
vt 0.7278 0.9910 0.0000
vt 0.6600 0.9910 0.0000
vt 0.0779 0.7361 0.0000
vt 0.1265 0.7361 0.0000
vt 0.1265 0.7955 0.0000
vt 0.0779 0.7955 0.0000
vt 0.1737 0.7361 0.0000
vt 0.2325 0.7361 0.0000
vt 0.2325 0.7955 0.0000
vt 0.1737 0.7955 0.0000
vt 0.2797 0.7361 0.0000
vt 0.3284 0.7361 0.0000
vt 0.3284 0.7955 0.0000
vt 0.2797 0.7955 0.0000
vt 0.3757 0.7361 0.0000
vt 0.4347 0.7361 0.0000
vt 0.4347 0.7955 0.0000
vt 0.3757 0.7955 0.0000
vt 0.4820 0.7361 0.0000
vt 0.5308 0.7361 0.0000
vt 0.5308 0.7955 0.0000
vt 0.4820 0.7955 0.0000
vt 0.5783 0.7361 0.0000
vt 0.6373 0.7361 0.0000
vt 0.6373 0.7955 0.0000
vt 0.5783 0.7955 0.0000
vt 0.6848 0.7361 0.0000
vt 0.7337 0.7361 0.0000
vt 0.7337 0.7955 0.0000
vt 0.6848 0.7955 0.0000
vt 0.7812 0.7361 0.0000
vt 0.8403 0.7361 0.0000
vt 0.8403 0.7955 0.0000
vt 0.7812 0.7955 0.0000
vt 0.1183 0.8082 0.0000
vt 0.1667 0.8082 0.0000
vt 0.1667 0.8669 0.0000
vt 0.1183 0.8669 0.0000
vt 0.2137 0.8082 0.0000
vt 0.2722 0.8082 0.0000
vt 0.2722 0.8669 0.0000
vt 0.2137 0.8669 0.0000
vt 0.3192 0.8082 0.0000
vt 0.3677 0.8082 0.0000
vt 0.3677 0.8669 0.0000
vt 0.3192 0.8669 0.0000
vt 0.4147 0.8082 0.0000
vt 0.4733 0.8082 0.0000
vt 0.4733 0.8669 0.0000
vt 0.4147 0.8669 0.0000
vt 0.5204 0.8082 0.0000
vt 0.5689 0.8082 0.0000
vt 0.5689 0.8669 0.0000
vt 0.5204 0.8669 0.0000
vt 0.6160 0.8082 0.0000
vt 0.6746 0.8082 0.0000
vt 0.6746 0.8669 0.0000
vt 0.6160 0.8669 0.0000
vt 0.7218 0.8082 0.0000
vt 0.7703 0.8082 0.0000
vt 0.7703 0.8669 0.0000
vt 0.7218 0.8669 0.0000
vt 0.8174 0.8082 0.0000
vt 0.8761 0.8082 0.0000
vt 0.8761 0.8669 0.0000
vt 0.8174 0.8669 0.0000
vt 0.0827 0.7063 0.0000
vt 0.0827 0.6476 0.0000
vt 0.0318 0.9910 0.0000
vt 0.0318 0.9223 0.0000
vt 0.7823 0.9223 0.0000
vt 0.7823 0.9910 0.0000
vt 0.8878 0.7361 0.0000
vt 0.8878 0.7955 0.0000
vt 0.6942 0.2965 0.0000
vt 0.6943 0.3040 0.0000
vt 0.6733 0.3022 0.0000
vt 0.6733 0.2992 0.0000
vt 0.6929 0.3113 0.0000
vt 0.6727 0.3052 0.0000
vt 0.6900 0.3181 0.0000
vt 0.6716 0.3079 0.0000
vt 0.6858 0.3242 0.0000
vt 0.6698 0.3104 0.0000
vt 0.6804 0.3293 0.0000
vt 0.6676 0.3125 0.0000
vt 0.6740 0.3331 0.0000
vt 0.6650 0.3141 0.0000
vt 0.6670 0.3356 0.0000
vt 0.6622 0.3150 0.0000
vt 0.6596 0.3365 0.0000
vt 0.6592 0.3154 0.0000
vt 0.6522 0.3359 0.0000
vt 0.6562 0.3152 0.0000
vt 0.6451 0.3337 0.0000
vt 0.6533 0.3143 0.0000
vt 0.6386 0.3301 0.0000
vt 0.6506 0.3128 0.0000
vt 0.6329 0.3252 0.0000
vt 0.6483 0.3108 0.0000
vt 0.6285 0.3193 0.0000
vt 0.6465 0.3084 0.0000
vt 0.6253 0.3126 0.0000
vt 0.6452 0.3057 0.0000
vt 0.6236 0.3053 0.0000
vt 0.6445 0.3027 0.0000
vt 0.6235 0.2979 0.0000
vt 0.6445 0.2997 0.0000
vt 0.6249 0.2906 0.0000
vt 0.6450 0.2967 0.0000
vt 0.6278 0.2838 0.0000
vt 0.6462 0.2940 0.0000
vt 0.6320 0.2777 0.0000
vt 0.6480 0.2915 0.0000
vt 0.6374 0.2726 0.0000
vt 0.6502 0.2894 0.0000
vt 0.6438 0.2687 0.0000
vt 0.6528 0.2878 0.0000
vt 0.6508 0.2663 0.0000
vt 0.6556 0.2868 0.0000
vt 0.6582 0.2654 0.0000
vt 0.6586 0.2865 0.0000
vt 0.6656 0.2660 0.0000
vt 0.6616 0.2867 0.0000
vt 0.6727 0.2682 0.0000
vt 0.6645 0.2876 0.0000
vt 0.6792 0.2718 0.0000
vt 0.6672 0.2891 0.0000
vt 0.6849 0.2766 0.0000
vt 0.6695 0.2911 0.0000
vt 0.6893 0.2826 0.0000
vt 0.6713 0.2935 0.0000
vt 0.6925 0.2893 0.0000
vt 0.6726 0.2962 0.0000
vt 0.5470 0.2918 0.0000
vt 0.5514 0.2692 0.0000
vt 0.6136 0.2882 0.0000
vt 0.6118 0.2974 0.0000
vt 0.5603 0.2481 0.0000
vt 0.6172 0.2796 0.0000
vt 0.5734 0.2293 0.0000
vt 0.6226 0.2719 0.0000
vt 0.5902 0.2136 0.0000
vt 0.6294 0.2656 0.0000
vt 0.6098 0.2018 0.0000
vt 0.6374 0.2607 0.0000
vt 0.6315 0.1943 0.0000
vt 0.6462 0.2577 0.0000
vt 0.6543 0.1931 0.0000
vt 0.6555 0.2582 0.0000
vt 0.6771 0.1951 0.0000
vt 0.6648 0.2590 0.0000
vt 0.6991 0.2001 0.0000
vt 0.6737 0.2600 0.0000
vt 0.7192 0.2112 0.0000
vt 0.6819 0.2646 0.0000
vt 0.7365 0.2262 0.0000
vt 0.6890 0.2707 0.0000
vt 0.7503 0.2445 0.0000
vt 0.6946 0.2781 0.0000
vt 0.7600 0.2653 0.0000
vt 0.6985 0.2866 0.0000
vt 0.7652 0.2877 0.0000
vt 0.7007 0.2957 0.0000
vt 0.7657 0.3106 0.0000
vt 0.7008 0.3050 0.0000
vt 0.7613 0.3331 0.0000
vt 0.6991 0.3142 0.0000
vt 0.7524 0.3543 0.0000
vt 0.6954 0.3228 0.0000
vt 0.7392 0.3731 0.0000
vt 0.6901 0.3304 0.0000
vt 0.7225 0.3887 0.0000
vt 0.6833 0.3368 0.0000
vt 0.7028 0.4006 0.0000
vt 0.6753 0.3416 0.0000
vt 0.6812 0.4081 0.0000
vt 0.6664 0.3447 0.0000
vt 0.6584 0.4109 0.0000
vt 0.6572 0.3458 0.0000
vt 0.6355 0.4089 0.0000
vt 0.6479 0.3450 0.0000
vt 0.6136 0.4022 0.0000
vt 0.6389 0.3423 0.0000
vt 0.5935 0.3912 0.0000
vt 0.6308 0.3378 0.0000
vt 0.5762 0.3761 0.0000
vt 0.6237 0.3317 0.0000
vt 0.5624 0.3578 0.0000
vt 0.6181 0.3242 0.0000
vt 0.5526 0.3370 0.0000
vt 0.6141 0.3158 0.0000
vt 0.5474 0.3147 0.0000
vt 0.6120 0.3067 0.0000
vt 0.7760 0.2979 0.0000
vt 0.7760 0.3262 0.0000
vt 0.8571 0.3262 0.0000
vt 0.8571 0.2979 0.0000
vt 0.7760 0.3545 0.0000
vt 0.8571 0.3545 0.0000
vt 0.7760 0.3828 0.0000
vt 0.8571 0.3828 0.0000
vt 0.7760 0.4111 0.0000
vt 0.8571 0.4111 0.0000
vt 0.7777 0.4393 0.0000
vt 0.8588 0.4393 0.0000
vt 0.7777 0.4674 0.0000
vt 0.8588 0.4674 0.0000
vt 0.7760 0.4955 0.0000
vt 0.8571 0.4955 0.0000
vt 0.7760 0.5235 0.0000
vt 0.8571 0.5235 0.0000
vt 0.7760 0.5516 0.0000
vt 0.8571 0.5516 0.0000
vt 0.7760 0.5796 0.0000
vt 0.8571 0.5796 0.0000
vt 0.7760 0.6077 0.0000
vt 0.8571 0.6077 0.0000
vt 0.7760 0.6358 0.0000
vt 0.8571 0.6358 0.0000
vt 0.7760 0.6640 0.0000
vt 0.8571 0.6640 0.0000
vt 0.7760 0.6922 0.0000
vt 0.8571 0.6922 0.0000
vt 0.7760 0.7205 0.0000
vt 0.8571 0.7205 0.0000
vt 0.9145 0.5706 0.0000
vt 0.9145 0.5990 0.0000
vt 0.9956 0.5990 0.0000
vt 0.9956 0.5706 0.0000
vt 0.9145 0.6273 0.0000
vt 0.9956 0.6273 0.0000
vt 0.9145 0.6556 0.0000
vt 0.9956 0.6556 0.0000
vt 0.9145 0.6838 0.0000
vt 0.9956 0.6838 0.0000
vt 0.9145 0.7120 0.0000
vt 0.9956 0.7120 0.0000
vt 0.9145 0.7402 0.0000
vt 0.9956 0.7402 0.0000
vt 0.9145 0.7682 0.0000
vt 0.9956 0.7682 0.0000
vt 0.9145 0.7963 0.0000
vt 0.9956 0.7963 0.0000
vt 0.9145 0.8243 0.0000
vt 0.9956 0.8243 0.0000
vt 0.9145 0.8523 0.0000
vt 0.9956 0.8523 0.0000
vt 0.9145 0.8804 0.0000
vt 0.9956 0.8804 0.0000
vt 0.9145 0.9085 0.0000
vt 0.9956 0.9085 0.0000
vt 0.9145 0.9367 0.0000
vt 0.9956 0.9367 0.0000
vt 0.9145 0.9650 0.0000
vt 0.9956 0.9650 0.0000
vt 0.9145 0.9933 0.0000
vt 0.9956 0.9933 0.0000
vt 0.8447 0.1308 0.0000
vt 0.8845 0.1742 0.0000
vt 0.7903 0.2606 0.0000
vt 0.7505 0.2172 0.0000
vt 0.2883 0.0779 0.0000
vt 0.3020 0.0764 0.0000
vt 0.3060 0.1350 0.0000
vt 0.2901 0.1367 0.0000
vt 0.5491 0.4534 0.0000
vt 0.3965 0.4506 0.0000
vt 0.3987 0.3305 0.0000
vt 0.5513 0.3333 0.0000
vt 0.0000 -0.0000 0.0000
vt 0.2373 0.4238 0.0000
vt 0.0880 0.4349 0.0000
vt 0.0793 0.3175 0.0000
vt 0.2286 0.3064 0.0000
vt 0.3845 0.6044 0.0000
vt 0.3118 0.6031 0.0000
vt 0.3140 0.4716 0.0000
vt 0.3867 0.4729 0.0000
vt 0.9933 0.2341 0.0000
vt 1.0095 0.2991 0.0000
vt 0.9097 0.3906 0.0000
vt 0.8699 0.3473 0.0000
vt 0.9535 0.1907 0.0000
vt 0.8301 0.3039 0.0000
vt 0.6709 0.1305 0.0000
vt 0.6311 0.0871 0.0000
vt 0.7308 -0.0044 0.0000
vt 0.7942 0.0173 0.0000
vt 0.7107 0.1739 0.0000
vt 0.8340 0.0606 0.0000
vt 0.4737 0.0413 0.0000
vt 0.5244 0.0462 0.0000
vt 0.5287 0.1690 0.0000
vt 0.4746 0.1992 0.0000
vt 0.4283 0.0803 0.0000
vt 0.4423 0.0785 0.0000
vt 0.4468 0.1615 0.0000
vt 0.4351 0.1630 0.0000
vt 0.3331 0.0432 0.0000
vt 0.3968 0.0416 0.0000
vt 0.4084 0.2017 0.0000
vt 0.3388 0.1691 0.0000
vt 0.1216 0.2043 0.0000
vt 0.0679 0.1748 0.0000
vt 0.0662 0.0523 0.0000
vt 0.1180 0.0442 0.0000
vt 0.1623 0.1660 0.0000
vt 0.1506 0.1671 0.0000
vt 0.1480 0.0828 0.0000
vt 0.1619 0.0816 0.0000
vt 0.2548 0.1691 0.0000
vt 0.1881 0.2064 0.0000
vt 0.1944 0.0436 0.0000
vt 0.2599 0.0439 0.0000
vt 0.1515 0.6004 0.0000
vt 0.0688 0.5990 0.0000
vt 0.0710 0.4675 0.0000
vt 0.1537 0.4689 0.0000
vt 0.2242 0.6016 0.0000
vt 0.2264 0.4701 0.0000
vt 0.5470 0.4756 0.0000
vt 0.6298 0.4770 0.0000
vt 0.6275 0.6085 0.0000
vt 0.5448 0.6071 0.0000
vt 0.4743 0.4744 0.0000
vt 0.4721 0.6059 0.0000
vt 0.0364 0.1877 0.0000
vt 0.0384 0.0314 0.0000
vt 0.0449 0.0372 0.0000
vt 0.0428 0.1848 0.0000
vt 0.1075 0.0151 0.0000
vt 0.1083 0.0211 0.0000
vt 0.1872 0.0115 0.0000
vt 0.1876 0.0178 0.0000
vt 0.2591 0.0114 0.0000
vt 0.2591 0.0178 0.0000
vt 0.3337 0.0106 0.0000
vt 0.3337 0.0170 0.0000
vt 0.4044 0.0092 0.0000
vt 0.4039 0.0155 0.0000
vt 0.4848 0.0104 0.0000
vt 0.4838 0.0164 0.0000
vt 0.5546 0.0273 0.0000
vt 0.5481 0.0331 0.0000
vt 0.5583 0.1833 0.0000
vt 0.5519 0.1804 0.0000
vt 0.4888 0.2273 0.0000
vt 0.4861 0.2213 0.0000
vt 0.4125 0.2337 0.0000
vt 0.4130 0.2272 0.0000
vt 0.3350 0.2016 0.0000
vt 0.3360 0.1951 0.0000
vt 0.2611 0.2029 0.0000
vt 0.2596 0.1964 0.0000
vt 0.1850 0.2388 0.0000
vt 0.1842 0.2323 0.0000
vt 0.1067 0.2333 0.0000
vt 0.1095 0.2273 0.0000
vt 0.3343 0.1602 0.0000
vt 0.3294 0.0522 0.0000
vt 0.2594 0.1602 0.0000
vt 0.2636 0.0526 0.0000
vt 0.4711 0.1881 0.0000
vt 0.4702 0.0529 0.0000
vt 0.4109 0.1899 0.0000
vt 0.4011 0.0532 0.0000
vt 0.1218 0.0557 0.0000
vt 0.1248 0.1927 0.0000
vt 0.1905 0.0557 0.0000
vt 0.1851 0.1947 0.0000
vt 0.2654 0.1540 0.0000
vt 0.3287 0.1534 0.0000
vt 0.3239 0.0586 0.0000
vt 0.2685 0.0595 0.0000
vt 0.4159 0.1828 0.0000
vt 0.4658 0.1809 0.0000
vt 0.4645 0.0596 0.0000
vt 0.4067 0.0606 0.0000
vt 0.1846 0.0626 0.0000
vt 0.1272 0.0630 0.0000
vt 0.1303 0.1859 0.0000
vt 0.1803 0.1870 0.0000
vt 0.3147 0.1474 0.0000
vt 0.3116 0.0653 0.0000
vt 0.2797 0.1475 0.0000
vt 0.2807 0.0654 0.0000
vt 0.4547 0.1755 0.0000
vt 0.4520 0.0661 0.0000
vt 0.4266 0.1760 0.0000
vt 0.4195 0.0663 0.0000
vt 0.1397 0.0688 0.0000
vt 0.1413 0.1797 0.0000
vt 0.1720 0.0691 0.0000
vt 0.1695 0.1807 0.0000
vt 0.0285 0.1918 0.0000
vt 0.0306 0.0251 0.0000
vt 0.0342 0.0278 0.0000
vt 0.0323 0.1900 0.0000
vt 0.2591 0.0033 0.0000
vt 0.3339 0.0025 0.0000
vt 0.3338 0.0066 0.0000
vt 0.2591 0.0074 0.0000
vt 0.5625 0.0211 0.0000
vt 0.5662 0.1875 0.0000
vt 0.5624 0.1856 0.0000
vt 0.5588 0.0237 0.0000
vt 0.3338 0.2098 0.0000
vt 0.2629 0.2110 0.0000
vt 0.2620 0.2070 0.0000
vt 0.3344 0.2058 0.0000
vt 0.4860 0.0024 0.0000
vt 0.4854 0.0064 0.0000
vt 0.4049 0.0011 0.0000
vt 0.4047 0.0051 0.0000
vt 0.1063 0.0071 0.0000
vt 0.1069 0.0111 0.0000
vt 0.1867 0.0034 0.0000
vt 0.1869 0.0075 0.0000
vt 0.1039 0.2410 0.0000
vt 0.1053 0.2372 0.0000
vt 0.1861 0.2471 0.0000
vt 0.1855 0.2430 0.0000
vt 0.4916 0.2350 0.0000
vt 0.4902 0.2312 0.0000
vt 0.4117 0.2419 0.0000
vt 0.4121 0.2379 0.0000
# 679 texture coords

o Object001
g Object001
usemtl wire_115115115
s 1
f 1/1/1 2/2/1 3/3/1 4/4/2 
f 5/5/3 6/6/4 7/7/5 8/8/6 
f 9/9/7 10/10/8 11/11/9 12/12/7 
f 13/1/10 14/2/10 15/3/11 16/4/11 
f 17/13/12 18/14/13 19/15/12 20/16/12 
f 21/17/14 22/18/15 23/19/16 24/20/16 
f 25/1/17 26/2/18 27/3/18 28/4/19 
f 29/21/20 30/22/20 31/23/20 32/24/21 
f 33/25/22 34/26/23 35/27/24 36/28/22 
f 37/1/25 38/2/26 39/3/25 40/4/27 
f 41/29/28 42/30/29 43/31/29 44/32/29 
f 45/33/30 46/34/30 47/35/30 48/36/30 
f 49/1/31 50/2/32 51/3/33 52/4/34 
f 53/37/35 54/38/36 55/39/37 56/40/36 
f 57/33/38 58/34/39 59/35/40 60/36/38 
f 4/41/41 61/42/42 62/43/42 1/44/43 
f 1/44/43 62/43/42 63/45/41 8/46/44 
f 8/46/44 63/45/41 64/47/41 5/48/45 
f 5/48/45 64/47/41 65/49/43 12/50/43 
f 12/50/43 65/49/43 66/51/41 9/52/43 
f 9/53/43 66/54/41 67/55/41 16/56/41 
f 16/56/41 67/55/41 68/57/44 13/58/41 
f 13/58/41 68/57/44 69/59/44 20/60/41 
f 20/60/41 69/59/44 70/61/41 17/62/41 
f 17/62/41 70/61/41 71/63/41 24/64/41 
f 24/64/41 71/63/41 72/65/41 21/66/46 
f 21/66/46 72/65/41 73/52/41 28/51/41 
f 28/67/41 73/68/41 74/69/41 25/70/41 
f 25/70/41 74/69/41 75/71/41 32/72/46 
f 32/72/47 75/71/47 76/73/47 29/74/41 
f 29/74/41 76/73/47 77/75/47 36/76/47 
f 36/76/41 77/75/41 78/77/41 33/78/41 
f 33/78/41 78/77/41 79/79/47 40/80/41 
f 40/80/41 79/79/47 80/81/41 37/82/48 
f 37/82/48 80/81/41 81/52/47 44/51/41 
f 44/83/41 81/84/47 82/85/47 41/86/47 
f 41/86/47 82/85/41 83/58/41 48/57/41 
f 48/57/41 83/58/41 84/60/41 45/59/48 
f 45/59/41 84/60/41 85/62/48 52/61/43 
f 52/61/43 85/62/48 86/64/43 49/63/49 
f 49/63/49 86/64/43 87/66/43 56/65/48 
f 56/65/48 87/66/43 88/51/41 53/52/41 
f 53/68/41 88/67/41 89/87/43 60/88/42 
f 60/88/42 89/87/43 90/89/41 57/90/41 
f 57/90/43 90/89/41 61/42/42 4/41/41 
f 91/91/43 92/92/41 93/93/41 94/94/41 
f 94/94/41 93/93/41 95/95/41 96/96/43 
f 96/96/43 95/95/41 97/97/41 98/98/41 
f 98/98/41 97/97/41 99/99/43 100/100/41 
f 100/100/41 99/99/43 101/101/42 102/102/41 
f 102/102/41 101/101/41 103/103/41 104/104/41 
f 104/104/41 103/103/41 105/105/41 106/106/41 
f 106/106/41 105/105/41 107/107/41 108/108/41 
f 108/108/41 107/107/41 109/109/41 110/110/41 
f 110/111/41 109/112/47 111/113/41 112/114/41 
f 112/114/41 111/113/41 113/115/41 114/116/47 
f 114/116/47 113/115/41 115/117/48 116/118/41 
f 116/118/41 115/117/48 117/119/41 118/120/47 
f 118/120/47 117/119/41 119/121/41 120/122/41 
f 120/122/41 119/121/41 121/91/41 122/92/41 
f 122/92/41 121/91/41 123/94/41 124/93/41 
f 124/93/41 123/94/41 125/96/41 126/95/41 
f 126/95/41 125/96/41 127/98/41 128/97/41 
f 128/97/41 127/98/41 129/100/41 130/99/47 
f 130/99/47 129/100/41 131/102/41 132/101/41 
f 132/101/41 131/102/41 133/104/41 134/103/41 
f 134/103/41 133/104/41 135/106/41 136/105/41 
f 136/105/41 135/106/41 137/108/41 138/107/41 
f 138/107/41 137/108/41 139/110/41 140/109/41 
f 140/112/41 139/111/41 141/114/41 142/113/41 
f 142/113/41 141/114/41 143/116/41 144/115/41 
f 144/115/41 143/116/41 145/118/41 146/117/41 
f 146/117/41 145/118/42 147/120/41 148/119/41 
f 148/119/41 147/120/41 149/122/41 150/121/41 
f 150/121/41 149/122/41 92/92/41 91/91/43 
s 2
f 61/123/50 151/124/50 152/125/51 62/126/51 
f 62/126/51 152/125/51 153/127/52 63/128/52 
f 63/128/52 153/127/52 154/129/53 64/130/53 
f 64/130/53 154/129/53 155/131/54 65/132/54 
f 65/132/54 155/131/54 156/133/55 66/134/55 
f 66/134/55 156/133/55 157/135/56 67/136/56 
f 67/136/56 157/135/56 158/137/57 68/138/57 
f 68/139/57 158/140/57 159/141/58 69/142/58 
f 69/142/58 159/141/58 160/143/59 70/144/59 
f 70/144/59 160/143/59 161/145/60 71/146/60 
f 71/146/60 161/145/60 162/147/61 72/148/61 
f 72/148/61 162/147/61 163/149/62 73/150/62 
f 73/150/62 163/149/62 164/151/63 74/152/63 
f 74/152/63 164/151/63 165/153/64 75/154/64 
f 75/155/64 165/156/64 166/124/65 76/123/65 
f 76/123/65 166/124/65 167/125/66 77/126/66 
f 77/126/66 167/125/66 168/127/67 78/128/67 
f 78/128/67 168/127/67 169/129/68 79/130/68 
f 79/130/68 169/129/68 170/157/69 80/158/69 
f 80/158/69 170/157/69 171/133/70 81/134/70 
f 81/134/70 171/133/70 172/135/71 82/136/71 
f 82/136/71 172/135/71 173/159/72 83/160/72 
f 83/161/72 173/162/72 174/141/73 84/142/73 
f 84/142/73 174/141/73 175/163/74 85/164/74 
f 85/164/74 175/163/74 176/145/75 86/146/75 
f 86/146/75 176/145/75 177/165/76 87/166/76 
f 87/166/76 177/165/76 178/149/77 88/150/77 
f 88/150/77 178/149/77 179/151/78 89/152/79 
f 89/152/79 179/151/78 180/153/80 90/154/80 
f 90/155/80 180/156/80 151/124/50 61/123/50 
f 92/167/66 181/168/66 182/169/65 93/170/65 
f 93/170/65 182/169/65 183/171/64 95/172/64 
f 95/173/64 183/174/64 184/175/81 97/176/81 
f 97/176/81 184/175/81 185/177/82 99/178/82 
f 99/178/82 185/177/82 186/179/83 101/180/83 
f 101/180/83 186/179/83 187/181/84 103/182/84 
f 103/182/84 187/181/84 188/183/59 105/184/59 
f 105/184/59 188/183/59 189/185/85 107/186/86 
f 107/186/86 189/185/85 190/187/57 109/188/57 
f 109/188/57 190/187/57 191/189/87 111/190/87 
f 111/190/87 191/189/87 192/191/88 113/192/88 
f 113/192/88 192/191/88 193/193/89 115/194/89 
f 115/194/89 193/193/89 194/195/90 117/196/90 
f 117/196/90 194/195/90 195/197/91 119/198/91 
f 119/198/91 195/197/91 196/168/92 121/167/93 
f 121/167/93 196/168/92 197/169/50 123/170/50 
f 123/170/50 197/169/50 198/171/94 125/172/95 
f 125/173/95 198/174/94 199/175/96 127/176/96 
f 127/176/96 199/175/96 200/177/97 129/178/97 
f 129/178/97 200/177/97 201/179/98 131/180/98 
f 131/180/98 201/179/98 202/181/99 133/182/99 
f 133/182/99 202/181/99 203/183/100 135/184/100 
f 135/184/100 203/183/100 204/185/101 137/186/101 
f 137/186/101 204/185/101 205/187/102 139/188/102 
f 139/188/102 205/187/102 206/189/103 141/190/103 
f 141/190/103 206/189/103 207/191/104 143/192/104 
f 143/192/104 207/191/104 208/193/69 145/194/69 
f 145/194/69 208/193/69 209/195/68 147/196/105 
f 147/196/105 209/195/68 210/197/106 149/198/106 
f 149/198/106 210/197/106 181/168/66 92/167/66 
f 3/199/107 2/200/107 211/201/107 212/202/107 
f 1/203/108 8/204/108 213/205/108 214/206/108 
f 7/207/109 6/208/110 215/209/110 216/210/109 
f 5/211/111 12/212/112 217/213/112 218/214/111 
f 11/215/113 10/216/113 219/217/113 220/218/113 
f 9/219/114 16/220/115 221/221/115 222/222/116 
f 15/223/117 14/224/118 223/225/119 224/226/120 
f 13/227/121 20/228/121 225/229/121 226/230/121 
f 19/231/122 18/232/122 227/233/122 228/234/123 
f 17/235/124 24/236/124 229/237/124 230/238/124 
f 23/239/125 22/240/126 231/241/126 232/242/125 
f 21/243/127 28/244/128 233/245/128 234/246/127 
f 27/247/129 26/248/129 235/249/129 236/250/129 
f 25/251/130 32/252/131 237/253/131 238/254/130 
f 31/255/132 30/256/132 239/257/132 240/258/132 
f 29/259/133 36/260/134 241/261/134 242/262/133 
f 35/263/135 34/264/135 243/265/135 244/266/135 
f 33/267/136 40/268/136 245/269/136 246/270/136 
f 39/271/137 38/272/137 247/273/137 248/274/137 
f 37/275/138 44/276/138 249/277/138 250/278/138 
f 43/279/139 42/280/140 251/281/140 252/282/139 
f 41/283/141 48/284/142 253/285/142 254/286/141 
f 47/287/143 46/288/143 255/289/143 256/290/143 
f 45/291/144 52/292/145 257/293/145 258/294/144 
f 51/295/146 50/296/146 259/297/146 260/298/146 
f 49/299/147 56/300/147 261/301/147 262/302/147 
f 55/303/148 54/304/149 263/305/149 264/306/148 
f 53/307/150 60/308/150 265/309/150 266/310/150 
f 59/311/151 58/312/152 267/313/152 268/314/151 
f 57/315/153 4/316/153 269/317/153 270/318/153 
s 4
f 1/203/154 214/206/154 211/201/155 2/200/155 
s 1
f 214/1/156 269/4/157 212/3/158 211/2/156 
s 4
f 269/319/159 4/320/159 3/199/160 212/202/160 
f 213/205/161 8/204/161 7/207/162 216/210/162 
f 5/211/163 218/214/163 215/209/163 6/208/163 
s 1
f 218/37/164 213/40/165 216/39/166 215/38/167 
s 4
f 217/213/168 12/212/168 11/215/169 220/218/169 
f 9/219/170 222/222/170 219/217/170 10/216/170 
s 1
f 222/33/171 217/36/171 220/35/172 219/34/173 
s 4
f 221/221/174 16/220/174 15/223/174 224/226/174 
f 13/227/175 226/230/175 223/225/175 14/224/176 
s 1
f 226/1/177 221/4/178 224/3/178 223/2/179 
s 4
f 225/321/180 20/322/180 19/231/181 228/234/180 
f 17/235/134 230/238/134 227/233/182 18/232/182 
s 1
f 230/37/183 225/40/183 228/39/184 227/38/185 
s 4
f 229/237/186 24/236/186 23/239/186 232/242/186 
f 21/243/187 234/246/187 231/241/188 22/240/188 
s 1
f 234/33/189 229/36/190 232/35/190 231/34/191 
s 4
f 233/245/192 28/244/192 27/247/193 236/250/193 
f 25/251/194 238/254/194 235/249/195 26/248/195 
s 1
f 238/1/196 233/4/197 236/3/198 235/2/198 
s 4
f 237/253/199 32/252/199 31/323/200 240/324/200 
f 29/259/201 242/262/201 239/257/202 30/256/202 
s 1
f 242/37/203 237/40/204 240/39/203 239/38/205 
s 4
f 241/261/206 36/260/206 35/263/206 244/266/207 
f 33/267/208 246/270/208 243/265/209 34/264/209 
s 1
f 246/33/210 241/36/210 244/35/211 243/34/212 
s 4
f 245/269/213 40/268/213 39/271/213 248/274/213 
f 37/275/214 250/278/214 247/273/214 38/272/214 
s 1
f 250/1/215 245/4/216 248/3/215 247/2/217 
s 4
f 249/277/218 44/276/218 43/279/218 252/282/218 
f 41/283/219 254/286/219 251/281/220 42/280/220 
s 1
f 254/37/221 249/40/222 252/39/222 251/38/222 
s 4
f 253/285/223 48/284/223 47/325/133 256/326/223 
f 45/291/224 258/294/224 255/289/225 46/288/226 
s 1
f 258/33/227 253/36/227 256/35/227 255/34/227 
s 4
f 257/293/228 52/292/228 51/295/228 260/298/228 
f 49/299/229 262/302/229 259/297/229 50/296/229 
s 1
f 262/1/230 257/4/231 260/3/232 259/2/230 
s 4
f 261/301/233 56/300/233 55/303/233 264/306/233 
f 53/307/234 266/310/234 263/305/234 54/304/234 
s 1
f 266/37/235 261/40/236 264/39/236 263/38/237 
s 4
f 265/309/238 60/308/238 59/311/239 268/314/239 
f 57/315/240 270/318/240 267/313/241 58/312/241 
s 1
f 270/33/242 265/36/242 268/35/243 267/34/243 
f 152/327/42 151/328/43 182/329/41 181/330/43 
f 151/328/43 180/331/41 183/332/43 182/329/41 
f 180/331/41 179/333/41 184/334/41 183/332/43 
f 179/333/41 178/335/41 185/336/43 184/334/41 
f 178/335/41 177/337/43 186/338/42 185/336/43 
f 177/337/43 176/339/43 187/340/41 186/338/42 
f 176/339/43 175/341/48 188/342/41 187/340/41 
f 175/341/48 174/343/41 189/344/41 188/342/41 
f 174/343/41 173/345/41 190/346/41 189/344/41 
f 173/345/41 172/347/41 191/348/41 190/346/47 
f 172/347/47 171/349/47 192/350/41 191/348/41 
f 171/349/47 170/351/41 193/352/48 192/350/41 
f 170/351/41 169/353/47 194/354/41 193/352/48 
f 169/353/47 168/355/41 195/356/41 194/354/41 
f 168/355/41 167/357/41 196/358/47 195/356/41 
f 167/357/41 166/359/47 197/360/41 196/358/47 
f 166/359/47 165/361/41 198/362/41 197/360/41 
f 165/361/41 164/363/41 199/364/41 198/362/41 
f 164/363/41 163/365/41 200/366/41 199/364/41 
f 163/365/41 162/367/41 201/368/41 200/366/41 
f 162/367/41 161/369/41 202/370/41 201/368/41 
f 161/369/41 160/371/41 203/372/41 202/370/41 
f 160/371/41 159/373/44 204/374/41 203/372/41 
f 159/373/44 158/375/44 205/376/41 204/374/41 
f 158/375/44 157/377/41 206/378/41 205/376/41 
f 157/377/41 156/379/41 207/380/41 206/378/41 
f 156/379/41 155/381/43 208/382/42 207/380/41 
f 155/381/43 154/383/41 209/384/41 208/382/42 
f 154/383/41 153/385/41 210/386/41 209/384/41 
f 153/385/41 152/327/42 181/330/43 210/386/41 
f 271/387/244 272/388/245 273/389/246 274/390/246 
f 272/388/245 275/391/246 276/392/246 273/389/246 
f 275/391/246 277/393/246 278/394/246 276/392/246 
f 277/393/246 279/395/244 280/396/245 278/394/246 
f 279/395/244 281/397/246 282/398/246 280/396/245 
f 281/397/246 283/399/246 284/400/246 282/398/246 
f 283/399/246 285/401/247 286/402/246 284/400/246 
f 285/401/247 287/403/247 288/404/246 286/402/246 
f 287/403/247 289/405/246 290/406/246 288/404/246 
f 289/405/246 291/407/246 292/408/246 290/406/246 
f 291/407/246 293/409/246 294/410/246 292/408/246 
f 293/409/248 295/411/246 296/412/246 294/410/246 
f 295/411/246 297/413/246 298/414/246 296/412/246 
f 297/413/246 299/415/246 300/416/248 298/414/246 
f 299/415/246 301/417/248 302/418/246 300/416/248 
f 301/417/248 303/419/246 304/420/246 302/418/246 
f 303/419/246 305/421/246 306/422/246 304/420/246 
f 305/421/246 307/423/248 308/424/246 306/422/246 
f 307/423/248 309/425/246 310/426/246 308/424/246 
f 309/425/246 311/427/248 312/428/246 310/426/246 
f 311/427/248 313/429/248 314/430/246 312/428/246 
f 313/429/246 315/431/246 316/432/248 314/430/246 
f 315/431/246 317/433/246 318/434/246 316/432/246 
f 317/433/246 319/435/249 320/436/246 318/434/246 
f 319/435/249 321/437/246 322/438/246 320/436/246 
f 321/437/246 323/439/244 324/440/245 322/438/246 
f 323/439/244 325/441/246 326/442/244 324/440/245 
f 325/441/246 327/443/244 328/444/246 326/442/244 
f 327/443/244 329/445/246 330/446/244 328/444/246 
f 329/445/246 271/387/244 274/390/246 330/446/244 
s 2
f 91/447/51 94/448/50 331/449/50 332/450/51 
f 94/448/50 96/451/250 333/452/250 331/449/50 
f 96/451/250 98/453/251 334/454/251 333/452/250 
f 98/453/251 100/455/252 335/456/252 334/454/251 
f 100/455/252 102/457/253 336/458/254 335/456/252 
f 102/457/253 104/459/99 337/460/99 336/458/254 
f 104/459/99 106/461/100 338/462/255 337/460/99 
f 106/461/100 108/463/73 339/464/73 338/462/255 
f 108/463/73 110/465/102 340/466/102 339/464/73 
f 110/465/102 112/467/256 341/468/256 340/466/102 
f 112/467/256 114/469/257 342/470/257 341/468/256 
f 114/469/257 116/471/69 343/472/69 342/470/257 
f 116/471/69 118/473/68 344/474/258 343/472/69 
f 118/473/68 120/475/67 345/476/67 344/474/258 
f 120/475/67 122/477/259 346/478/259 345/476/67 
f 122/479/259 124/480/65 347/481/65 346/482/259 
f 124/480/65 126/483/64 348/484/260 347/481/65 
f 126/483/64 128/485/261 349/486/261 348/484/260 
f 128/485/261 130/487/262 350/488/262 349/486/261 
f 130/487/262 132/489/61 351/490/61 350/488/262 
f 132/489/61 134/491/84 352/492/84 351/490/61 
f 134/491/84 136/493/59 353/494/59 352/492/84 
f 136/493/59 138/495/58 354/496/58 353/494/59 
f 138/495/58 140/497/57 355/498/57 354/496/58 
f 140/497/57 142/499/263 356/500/263 355/498/57 
f 142/499/263 144/501/55 357/502/55 356/500/263 
f 144/501/55 146/503/264 358/504/264 357/502/55 
f 146/503/264 148/505/265 359/506/265 358/504/264 
f 148/505/265 150/507/266 360/508/266 359/506/265 
f 150/507/266 91/509/51 332/510/51 360/508/266 
s 1
f 269/41/246 214/44/244 361/43/245 362/42/244 
f 214/44/244 213/46/247 363/45/246 361/43/245 
f 213/46/247 218/48/267 364/47/246 363/45/246 
f 218/48/267 217/50/245 365/49/244 364/47/246 
f 217/50/244 222/52/246 366/51/246 365/49/244 
f 222/53/246 221/56/246 367/55/246 366/54/246 
f 221/56/246 226/58/246 368/57/247 367/55/246 
f 226/58/246 225/60/246 369/59/247 368/57/247 
f 225/60/246 230/62/246 370/61/246 369/59/247 
f 230/62/246 229/64/246 371/63/246 370/61/246 
f 229/64/246 234/66/268 372/65/246 371/63/246 
f 234/66/268 233/51/246 373/52/246 372/65/248 
f 233/67/246 238/70/246 374/69/246 373/68/246 
f 238/70/246 237/72/248 375/71/246 374/69/246 
f 237/72/248 242/74/246 376/73/248 375/71/246 
f 242/74/246 241/76/246 377/75/246 376/73/248 
f 241/76/246 246/78/246 378/77/246 377/75/246 
f 246/78/246 245/80/246 379/79/248 378/77/246 
f 245/80/246 250/82/249 380/81/246 379/79/248 
f 250/82/249 249/51/246 381/52/248 380/81/246 
f 249/83/246 254/86/248 382/85/248 381/84/248 
f 254/86/248 253/57/246 383/58/246 382/85/246 
f 253/57/246 258/59/246 384/60/246 383/58/246 
f 258/59/246 257/61/244 385/62/249 384/60/246 
f 257/61/244 262/63/269 386/64/246 385/62/249 
f 262/63/269 261/65/249 387/66/244 386/64/246 
f 261/65/249 266/52/246 388/51/246 387/66/244 
f 266/68/246 265/88/245 389/87/244 388/67/246 
f 265/88/245 270/90/246 390/89/246 389/87/244 
f 270/90/246 269/41/246 362/42/244 390/89/246 
f 332/91/244 331/94/244 391/93/246 392/92/246 
f 331/94/244 333/96/244 393/95/244 391/93/246 
f 333/96/244 334/98/244 394/97/246 393/95/244 
f 334/98/244 335/100/244 395/99/244 394/97/246 
f 335/100/244 336/102/245 396/101/245 395/99/244 
f 336/102/245 337/104/246 397/103/246 396/101/245 
f 337/104/249 338/106/246 398/105/246 397/103/246 
f 338/106/246 339/108/246 399/107/246 398/105/246 
f 339/108/246 340/110/249 400/109/246 399/107/246 
f 340/111/249 341/114/246 401/113/246 400/112/248 
f 341/114/246 342/116/248 402/115/246 401/113/246 
f 342/116/248 343/118/246 403/117/246 402/115/246 
f 343/118/246 344/120/246 404/119/246 403/117/246 
f 344/120/246 345/122/246 405/121/246 404/119/246 
f 345/122/246 346/92/246 406/91/246 405/121/246 
f 346/92/246 347/93/246 407/94/246 406/91/246 
f 347/93/246 348/95/246 408/96/248 407/94/246 
f 348/95/246 349/97/246 409/98/246 408/96/248 
f 349/97/246 350/99/248 410/100/246 409/98/246 
f 350/99/248 351/101/246 411/102/246 410/100/246 
f 351/101/246 352/103/246 412/104/246 411/102/246 
f 352/103/246 353/105/246 413/106/246 412/104/246 
f 353/105/246 354/107/246 414/108/246 413/106/246 
f 354/107/246 355/109/246 415/110/246 414/108/246 
f 355/112/246 356/113/246 416/114/246 415/111/246 
f 356/113/246 357/115/246 417/116/246 416/114/246 
f 357/115/246 358/117/246 418/118/245 417/116/246 
f 358/117/245 359/119/244 419/120/246 418/118/245 
f 359/119/244 360/121/246 420/122/246 419/120/246 
f 360/121/246 332/91/244 392/92/246 420/122/246 
s 2
f 362/123/50 361/126/51 272/125/51 271/124/50 
f 361/126/51 363/128/270 275/127/270 272/125/51 
f 363/128/270 364/130/53 277/129/53 275/127/270 
f 364/130/53 365/132/54 279/131/54 277/129/53 
f 365/132/54 366/134/55 281/133/55 279/131/54 
f 366/134/55 367/136/56 283/135/56 281/133/55 
f 367/136/56 368/138/57 285/137/57 283/135/56 
f 368/139/57 369/142/58 287/141/58 285/140/57 
f 369/142/58 370/144/59 289/143/59 287/141/58 
f 370/144/59 371/146/60 291/145/60 289/143/59 
f 371/146/60 372/148/61 293/147/61 291/145/60 
f 372/148/61 373/150/62 295/149/62 293/147/61 
f 373/150/62 374/152/63 297/151/63 295/149/62 
f 374/152/63 375/154/64 299/153/64 297/151/63 
f 375/155/64 376/123/65 301/124/65 299/156/64 
f 376/123/65 377/126/66 303/125/66 301/124/65 
f 377/126/66 378/128/67 305/127/67 303/125/66 
f 378/128/67 379/130/68 307/129/68 305/127/67 
f 379/130/68 380/158/69 309/157/69 307/129/68 
f 380/158/69 381/134/70 311/133/70 309/157/69 
f 381/134/70 382/136/71 313/135/71 311/133/70 
f 382/136/71 383/160/72 315/159/72 313/135/71 
f 383/161/72 384/142/73 317/141/73 315/162/72 
f 384/142/73 385/164/74 319/163/74 317/141/73 
f 385/164/74 386/146/75 321/145/75 319/163/74 
f 386/146/75 387/166/76 323/165/76 321/145/75 
f 387/166/76 388/150/77 325/149/77 323/165/76 
f 388/150/77 389/152/79 327/151/79 325/149/77 
f 389/152/79 390/154/80 329/153/80 327/151/79 
f 390/155/80 362/123/50 271/124/50 329/156/80 
f 392/167/66 391/170/65 274/169/65 273/168/66 
f 391/170/65 393/172/64 330/171/64 274/169/65 
f 393/173/64 394/176/81 328/175/81 330/174/64 
f 394/176/81 395/178/271 326/177/271 328/175/81 
f 395/178/271 396/180/83 324/179/83 326/177/271 
f 396/180/83 397/182/84 322/181/84 324/179/83 
f 397/182/84 398/184/59 320/183/59 322/181/84 
f 398/184/59 399/186/86 318/185/86 320/183/59 
f 399/186/86 400/188/57 316/187/57 318/185/86 
f 400/188/57 401/190/87 314/189/87 316/187/57 
f 401/190/87 402/192/88 312/191/88 314/189/87 
f 402/192/88 403/194/264 310/193/264 312/191/88 
f 403/194/264 404/196/90 308/195/90 310/193/264 
f 404/196/90 405/198/91 306/197/91 308/195/90 
f 405/198/91 406/167/93 304/168/93 306/197/91 
f 406/167/93 407/170/50 302/169/50 304/168/93 
f 407/170/50 408/172/95 300/171/95 302/169/50 
f 408/173/95 409/176/96 298/175/96 300/174/95 
f 409/176/96 410/178/97 296/177/97 298/175/96 
f 410/178/97 411/180/98 294/179/98 296/177/97 
f 411/180/98 412/182/99 292/181/99 294/179/98 
f 412/182/99 413/184/100 290/183/100 292/181/99 
f 413/184/100 414/186/101 288/185/101 290/183/100 
f 414/186/101 415/188/102 286/187/102 288/185/101 
f 415/188/102 416/190/103 284/189/103 286/187/102 
f 416/190/103 417/192/104 282/191/104 284/189/103 
f 417/192/104 418/194/69 280/193/69 282/191/104 
f 418/194/69 419/196/68 278/195/68 280/193/69 
f 419/196/68 420/198/106 276/197/106 278/195/68 
f 420/198/106 392/167/66 273/168/66 276/197/106 
s 1
f 421/511/272 422/512/272 423/513/272 424/514/272 
f 425/515/273 426/516/273 427/517/273 428/518/273 
s 2
f 429/519/143 430/520/143 431/521/274 432/522/275 
s 4
f 424/523/65 423/523/65 433/523/276 434/523/276 
s 2
f 435/524/277 436/525/277 437/526/278 438/527/279 
s 4
f 422/528/280 421/529/281 439/530/282 440/531/283 
s 1
f 441/532/272 436/533/272 435/534/272 442/535/272 
f 443/536/272 441/532/272 442/535/272 444/537/272 
f 422/512/272 443/536/272 444/537/272 423/513/272 
f 445/538/272 430/539/272 429/540/272 446/541/272 
f 447/542/272 445/538/272 446/541/272 448/543/272 
f 424/514/272 447/542/272 448/543/272 421/511/272 
f 449/544/273 450/545/273 451/546/273 452/547/273 
f 453/548/273 454/549/273 455/550/273 456/551/273 
f 457/552/273 458/553/273 459/554/273 460/555/273 
f 461/556/273 462/557/273 463/558/273 464/559/273 
f 465/560/273 466/561/273 467/562/273 468/563/273 
f 469/564/284 470/565/284 471/566/284 472/567/284 
s 4
f 442/523/65 435/523/65 438/523/285 473/523/276 
f 444/523/65 442/523/65 473/523/276 474/523/276 
f 423/523/65 444/523/65 474/523/276 433/523/276 
f 475/523/276 431/523/285 430/523/65 445/523/65 
f 476/523/276 475/523/276 445/523/65 447/523/65 
f 434/523/276 476/523/276 447/523/65 424/523/65 
f 446/568/286 429/569/287 432/570/288 477/571/289 
f 448/572/281 446/568/286 477/571/289 478/573/290 
f 421/529/281 448/572/281 478/573/290 439/530/282 
f 479/574/291 437/575/292 436/576/293 441/577/294 
f 480/578/295 479/574/291 441/577/294 443/579/280 
f 440/531/283 480/578/295 443/579/280 422/528/280 
s 1
f 481/580/296 482/581/297 483/582/298 484/583/246 
f 482/581/297 485/584/299 486/585/273 483/582/298 
f 485/584/299 487/586/299 488/587/284 486/585/273 
f 487/586/299 489/588/299 490/589/284 488/587/284 
f 489/588/299 491/590/299 492/591/284 490/589/284 
f 491/590/299 493/592/299 494/593/284 492/591/284 
f 493/592/299 495/594/299 496/595/284 494/593/284 
f 495/594/299 497/596/300 498/597/246 496/595/284 
f 497/596/300 499/598/301 500/599/298 498/597/246 
f 499/598/301 501/600/302 502/601/273 500/599/298 
f 501/600/302 503/602/303 504/603/284 502/601/273 
f 503/602/303 505/604/304 506/605/284 504/603/284 
f 505/604/304 507/606/305 508/607/284 506/605/284 
f 507/606/305 509/608/306 510/609/284 508/607/284 
f 509/608/306 511/610/307 512/611/284 510/609/284 
f 511/610/307 481/580/296 484/583/246 512/611/284 
s 2
f 484/583/308 483/582/308 463/558/308 462/557/308 
s 4
f 483/582/309 486/585/309 464/559/309 463/558/309 
f 486/585/309 488/587/309 471/566/309 464/559/309 
f 488/587/309 490/589/309 472/567/309 471/566/309 
f 490/589/309 492/591/309 457/552/309 472/567/309 
f 492/591/309 494/593/309 458/553/309 457/552/309 
f 494/593/309 496/595/310 449/544/310 458/553/309 
f 496/595/310 498/597/310 450/545/310 449/544/310 
s 2
f 498/597/311 500/599/311 451/546/311 450/545/311 
s 4
f 502/601/312 504/603/313 459/554/314 452/547/315 
f 504/603/313 506/605/316 460/555/317 459/554/314 
f 506/605/316 508/607/318 469/564/319 460/555/317 
f 508/607/318 510/609/320 470/565/321 469/564/319 
f 510/609/320 512/611/322 461/556/323 470/565/321 
s 1
f 513/552/273 514/555/284 515/612/284 516/613/273 
f 514/555/284 517/564/284 518/614/284 515/612/284 
f 517/564/284 519/567/273 520/615/273 518/614/284 
f 519/567/273 513/552/273 516/613/273 520/615/273 
f 521/544/273 522/547/273 523/616/273 524/617/273 
f 522/547/273 525/554/273 526/618/273 523/616/273 
f 525/554/273 527/553/273 528/619/273 526/618/273 
f 527/553/273 521/544/273 524/617/273 528/619/273 
f 529/556/284 530/559/273 531/620/273 532/621/284 
f 530/559/273 533/566/273 534/622/273 531/620/273 
f 533/566/273 535/565/284 536/623/284 534/622/273 
f 535/565/284 529/556/284 532/621/284 536/623/284 
s 2
f 515/612/324 518/614/324 537/624/324 538/625/324 
f 520/615/325 516/613/325 539/626/325 540/627/325 
f 523/616/326 526/618/326 541/628/326 542/629/326 
f 528/619/327 524/617/327 543/630/327 544/631/327 
f 531/620/327 534/622/327 545/632/327 546/633/327 
f 536/623/326 532/621/326 547/634/326 548/635/326 
s 1
f 539/626/273 538/625/273 549/636/273 550/637/273 
f 538/625/273 537/624/273 551/638/273 549/636/273 
f 537/624/273 540/627/273 552/639/273 551/638/273 
f 540/627/273 539/626/273 550/637/273 552/639/273 
f 543/630/273 542/629/284 553/640/284 554/641/273 
f 542/629/284 541/628/284 555/642/284 553/640/284 
f 541/628/284 544/631/273 556/643/273 555/642/284 
f 544/631/273 543/630/273 554/641/273 556/643/273 
f 547/634/273 546/633/284 557/644/284 558/645/273 
f 546/633/284 545/632/284 559/646/284 557/644/284 
f 545/632/284 548/635/273 560/647/273 559/646/284 
f 548/635/273 547/634/273 558/645/273 560/647/273 
s 2
f 549/636/328 551/638/328 428/518/328 427/517/328 
f 552/639/329 550/637/329 426/516/329 425/515/329 
f 553/640/330 555/642/330 456/551/330 455/550/330 
f 556/643/331 554/641/331 454/549/331 453/548/331 
f 557/644/331 559/646/331 468/563/331 467/562/331 
f 560/647/330 558/645/330 466/561/330 465/560/330 
f 432/648/275 431/649/274 561/650/332 562/651/332 
s 4
f 434/652/276 433/653/276 563/654/333 564/655/333 
s 2
f 438/656/279 437/657/278 565/658/334 566/659/334 
s 4
f 440/660/283 439/661/282 567/662/335 568/663/336 
f 473/664/276 438/656/285 566/659/333 569/665/333 
f 474/666/276 473/664/276 569/665/333 570/667/333 
f 433/653/276 474/666/276 570/667/333 563/654/333 
f 431/649/285 475/668/276 571/669/333 561/650/333 
f 475/668/276 476/670/276 572/671/333 571/669/333 
f 476/670/276 434/652/276 564/655/333 572/671/333 
f 477/672/289 432/648/288 562/651/337 573/673/338 
f 478/674/290 477/672/289 573/673/338 574/675/339 
f 439/661/282 478/674/290 574/675/339 567/662/335 
f 437/657/292 479/676/291 575/677/340 565/658/341 
f 479/676/291 480/678/295 576/679/342 575/677/340 
f 480/678/295 440/660/283 568/663/336 576/679/342 
s 1
f 482/581/297 481/580/296 562/651/343 561/650/344 
f 485/584/299 482/581/297 561/650/344 571/669/345 
f 487/586/299 485/584/299 571/669/345 572/671/345 
f 489/588/299 487/586/299 572/671/345 564/655/345 
f 491/590/299 489/588/299 564/655/345 563/654/345 
f 493/592/299 491/590/299 563/654/345 570/667/345 
f 495/594/299 493/592/299 570/667/345 569/665/346 
f 497/596/300 495/594/299 569/665/346 566/659/347 
f 499/598/301 497/596/300 566/659/347 565/658/348 
f 501/600/302 499/598/301 565/658/348 575/677/349 
f 503/602/303 501/600/302 575/677/349 576/679/350 
f 505/604/304 503/602/303 576/679/350 568/663/351 
f 507/606/305 505/604/304 568/663/351 567/662/352 
f 509/608/306 507/606/305 567/662/352 574/675/353 
f 511/610/307 509/608/306 574/675/353 573/673/354 
f 481/580/296 511/610/307 573/673/354 562/651/343 
s 4
f 500/599/355 502/601/312 452/547/315 451/546/355 
f 512/611/322 484/583/356 462/557/356 461/556/323 
f 516/613/357 515/612/357 538/625/357 539/626/357 
f 518/614/358 520/615/358 540/627/358 537/624/358 
f 524/617/359 523/616/359 542/629/359 543/630/359 
f 526/618/360 528/619/360 544/631/360 541/628/360 
f 532/621/360 531/620/360 546/633/360 547/634/360 
f 534/622/359 536/623/359 548/635/359 545/632/359 
f 550/637/361 549/636/361 427/517/361 426/516/361 
f 551/638/362 552/639/362 425/515/362 428/518/362 
f 554/641/363 553/640/363 455/550/363 454/549/363 
f 555/642/364 556/643/364 453/548/364 456/551/364 
f 558/645/364 557/644/364 467/562/364 466/561/364 
f 559/646/363 560/647/363 465/560/363 468/563/363 
s 2
f 457/552/365 460/555/365 514/555/365 513/552/365 
s 8
f 460/555/366 469/564/366 517/564/366 514/555/366 
s 2
f 469/564/367 472/567/367 519/567/367 517/564/367 
s 8
f 472/567/368 457/552/368 513/552/368 519/567/368 
s 2
f 449/544/369 452/547/369 522/547/369 521/544/369 
s 8
f 452/547/370 459/554/370 525/554/370 522/547/370 
s 2
f 459/554/371 458/553/371 527/553/371 525/554/371 
s 8
f 458/553/372 449/544/372 521/544/372 527/553/372 
s 2
f 461/556/371 464/559/371 530/559/371 529/556/371 
s 8
f 464/559/372 471/566/372 533/566/372 530/559/372 
s 2
f 471/566/369 470/565/369 535/565/369 533/566/369 
s 8
f 470/565/370 461/556/370 529/556/370 535/565/370 
# 574 polygons

