# 3ds Max Wavefront OBJ Exporter v0.99 - (c)2007 guruware
# File Created: 31.08.2026 22:22:09

mtllib Door_Left.mtl

#
# object Box011
#

v  -0.1310 -0.0250 -0.0872
v  -0.1310 0.0250 -0.0872
v  -0.0579 0.0250 -0.0872
v  -0.0579 -0.0250 -0.0872
v  0.0911 -0.0084 0.0820
v  0.0911 0.0084 0.0820
v  -0.0890 0.0084 0.0820
v  -0.0890 -0.0084 0.0820
v  0.1047 -0.3124 -0.0579
v  0.1047 -0.3124 0.0336
v  -0.0664 -0.3124 0.0354
v  -0.0664 -0.3124 -0.0598
v  0.1310 0.0250 0.0373
v  0.1310 -0.0250 0.0373
v  0.1310 -0.0250 -0.0616
v  0.1310 0.0250 -0.0616
v  -0.1310 0.3124 -0.0616
v  -0.1310 0.3124 0.0373
v  -0.0664 0.3124 0.0354
v  -0.0664 0.3124 -0.0598
v  -0.1310 -0.0250 0.0373
v  -0.1310 0.0250 0.0373
v  -0.1310 0.0250 -0.0616
v  -0.1310 -0.0250 -0.0616
v  -0.1310 0.2231 -0.0872
v  -0.1310 0.3124 -0.0872
v  -0.0717 0.3124 -0.0872
v  -0.0891 0.2231 -0.0872
v  -0.1310 0.1535 -0.0872
v  -0.1310 0.2035 -0.0872
v  -0.0890 0.2035 -0.0872
v  -0.0886 0.1535 -0.0872
v  -0.1310 0.0446 -0.0872
v  -0.1310 0.1339 -0.0872
v  -0.0885 0.1339 -0.0872
v  -0.0579 0.0446 -0.0872
v  0.0591 -0.2231 -0.0872
v  0.1013 -0.2978 -0.0872
v  0.1039 -0.3042 -0.0872
v  0.1036 -0.3087 -0.0872
v  0.1003 -0.3115 -0.0872
v  0.0940 -0.3124 -0.0872
v  -0.0717 -0.3124 -0.0872
v  -0.0891 -0.2231 -0.0872
v  0.0602 -0.1535 -0.0872
v  0.0594 -0.2035 -0.0872
v  -0.0890 -0.2035 -0.0872
v  -0.0886 -0.1535 -0.0872
v  0.1217 -0.0446 -0.0872
v  0.0605 -0.1339 -0.0872
v  -0.0885 -0.1339 -0.0872
v  -0.0579 -0.0446 -0.0872
v  0.0345 0.2584 0.0445
v  0.0467 0.2771 0.0445
v  -0.0763 0.2771 0.0445
v  -0.0824 0.2584 0.0445
v  0.0370 0.1701 0.0820
v  0.0364 0.1869 0.0820
v  -0.1005 0.1869 0.0820
v  -0.1002 0.1701 0.0820
v  0.0514 0.0796 0.0373
v  0.0367 0.0989 0.0373
v  -0.0808 0.0989 0.0373
v  -0.0734 0.0796 0.0373
v  -0.1049 -0.2600 0.0374
v  -0.1049 -0.2755 0.0374
v  -0.0757 -0.2755 0.0374
v  -0.0830 -0.2600 0.0374
v  -0.1130 -0.1597 0.0872
v  -0.1130 -0.1973 0.0872
v  -0.1029 -0.1913 0.0872
v  -0.1026 -0.1657 0.0872
v  -0.1049 -0.0810 0.0369
v  -0.1049 -0.0975 0.0369
v  -0.0815 -0.0975 0.0369
v  -0.0728 -0.0810 0.0369
v  0.1108 0.2982 -0.0616
v  0.1108 0.2982 0.0373
v  0.0685 0.2231 0.0373
v  0.0685 0.2231 -0.0616
v  0.0687 0.2035 0.0373
v  0.0695 0.1535 0.0373
v  0.0695 0.1535 -0.0616
v  0.0687 0.2035 -0.0616
v  0.0698 0.1339 -0.0616
v  0.0698 0.1339 0.0373
v  0.1310 0.0446 0.0373
v  0.1310 0.0446 -0.0616
v  0.1108 -0.2982 0.0373
v  0.1108 -0.2982 -0.0616
v  0.0685 -0.2231 -0.0616
v  0.0685 -0.2231 0.0373
v  0.0687 -0.2035 -0.0616
v  0.0695 -0.1535 -0.0616
v  0.0695 -0.1535 0.0373
v  0.0687 -0.2035 0.0373
v  0.0698 -0.1339 0.0373
v  0.0698 -0.1339 -0.0616
v  0.1310 -0.0446 -0.0616
v  0.1310 -0.0446 0.0373
v  -0.1310 -0.3124 -0.0616
v  -0.1310 -0.3124 0.0373
v  -0.1310 -0.2231 0.0373
v  -0.1310 -0.2231 -0.0616
v  -0.1310 -0.2035 0.0373
v  -0.1310 -0.1535 0.0373
v  -0.1310 -0.1535 -0.0616
v  -0.1310 -0.2035 -0.0616
v  -0.1310 -0.1339 -0.0616
v  -0.1310 -0.1339 0.0373
v  -0.1310 -0.0446 0.0373
v  -0.1310 -0.0446 -0.0616
v  -0.1310 0.2231 -0.0616
v  -0.1310 0.2231 0.0373
v  -0.1310 0.2035 -0.0616
v  -0.1310 0.1535 -0.0616
v  -0.1310 0.1535 0.0373
v  -0.1310 0.2035 0.0373
v  -0.1310 0.1339 0.0373
v  -0.1310 0.1339 -0.0616
v  -0.1310 0.0446 -0.0616
v  -0.1310 0.0446 0.0373
v  0.1217 -0.0250 0.0629
v  0.1217 0.0250 0.0629
v  0.1217 0.0446 0.0629
v  -0.0579 0.0446 0.0629
v  -0.0993 0.0384 0.0820
v  0.1042 0.0384 0.0820
v  -0.1310 0.0250 0.0629
v  -0.1310 -0.0250 0.0629
v  -0.1135 -0.0215 0.0820
v  -0.1135 0.0215 0.0820
v  -0.1310 -0.0446 0.0629
v  -0.0579 -0.0446 0.0629
v  -0.0993 -0.0384 0.0820
v  -0.1135 -0.0384 0.0820
v  0.0591 0.2231 0.0629
v  -0.0891 0.2231 0.0629
v  -0.1060 0.2170 0.0820
v  0.0460 0.2170 0.0820
v  -0.1310 0.2035 0.0629
v  -0.1310 0.1535 0.0629
v  -0.1178 0.1570 0.0820
v  -0.1178 0.2000 0.0820
v  -0.1310 0.1339 0.0629
v  -0.0885 0.1339 0.0629
v  -0.1054 0.1401 0.0820
v  -0.1178 0.1401 0.0820
v  0.0605 -0.1339 0.0629
v  -0.0885 -0.1339 0.0629
v  -0.1059 -0.1401 0.0820
v  0.0471 -0.1401 0.0820
v  -0.1310 -0.1535 0.0629
v  -0.1310 -0.2035 0.0629
v  -0.1178 -0.2000 0.0820
v  -0.1178 -0.1570 0.0820
v  -0.1310 -0.2231 0.0629
v  -0.0891 -0.2231 0.0629
v  -0.1065 -0.2170 0.0820
v  -0.1178 -0.2170 0.0820
v  0.0970 0.3044 0.0629
v  0.0940 0.3124 0.0629
v  -0.0717 0.3124 0.0629
v  -0.0682 0.3009 0.0629
v  0.0916 0.3009 0.0629
v  -0.1310 0.3124 0.0629
v  -0.1310 0.2231 0.0629
v  -0.1216 0.2346 0.0629
v  -0.1216 0.3009 0.0629
v  -0.0869 0.2346 0.0629
v  0.1013 0.2978 0.0629
v  0.0542 0.2346 0.0629
v  0.0605 0.1339 0.0629
v  0.0561 0.1224 0.0629
v  0.1015 0.0561 0.0629
v  -0.0860 0.1224 0.0629
v  -0.1310 0.0446 0.0629
v  -0.1216 0.0561 0.0629
v  -0.1216 0.1224 0.0629
v  -0.0632 0.0561 0.0629
v  -0.1310 -0.3124 0.0629
v  -0.0717 -0.3124 0.0629
v  -0.0682 -0.3009 0.0629
v  -0.1216 -0.3009 0.0629
v  0.0970 -0.3044 0.0629
v  0.1013 -0.2978 0.0629
v  0.0591 -0.2231 0.0629
v  0.0542 -0.2346 0.0629
v  0.0916 -0.3009 0.0629
v  -0.0869 -0.2346 0.0629
v  -0.1216 -0.2346 0.0629
v  0.1217 -0.0446 0.0629
v  0.1015 -0.0561 0.0629
v  0.0561 -0.1224 0.0629
v  -0.0632 -0.0561 0.0629
v  -0.1310 -0.1339 0.0629
v  -0.1216 -0.1224 0.0629
v  -0.1216 -0.0561 0.0629
v  -0.0860 -0.1224 0.0629
v  0.0916 0.3009 0.0560
v  -0.0682 0.3009 0.0560
v  -0.0724 0.2895 0.0560
v  0.0738 0.2895 0.0560
v  -0.1216 0.3009 0.0560
v  -0.1216 0.2346 0.0560
v  -0.1122 0.2461 0.0560
v  -0.1122 0.2895 0.0560
v  -0.0869 0.2346 0.0560
v  -0.0847 0.2461 0.0560
v  0.0542 0.2346 0.0560
v  0.0493 0.2461 0.0560
v  0.1015 0.0561 0.0470
v  0.0561 0.1224 0.0470
v  0.0517 0.1110 0.0470
v  0.0815 0.0676 0.0470
v  -0.0860 0.1224 0.0470
v  -0.0835 0.1110 0.0470
v  -0.1216 0.1224 0.0470
v  -0.1216 0.0561 0.0470
v  -0.1122 0.0676 0.0470
v  -0.1122 0.1110 0.0470
v  -0.0632 0.0561 0.0470
v  -0.0686 0.0676 0.0470
v  -0.1216 -0.3009 0.0483
v  -0.0682 -0.3009 0.0483
v  -0.0724 -0.2895 0.0483
v  -0.1122 -0.2895 0.0483
v  0.0916 -0.3009 0.0483
v  0.0542 -0.2346 0.0483
v  0.0493 -0.2461 0.0483
v  0.0738 -0.2895 0.0483
v  -0.0869 -0.2346 0.0483
v  -0.0847 -0.2461 0.0483
v  -0.1216 -0.2346 0.0483
v  -0.1122 -0.2461 0.0483
v  0.0561 -0.1224 0.0487
v  0.1015 -0.0561 0.0487
v  0.0815 -0.0676 0.0487
v  0.0517 -0.1110 0.0487
v  -0.0632 -0.0561 0.0487
v  -0.0686 -0.0676 0.0487
v  -0.1216 -0.0561 0.0487
v  -0.1216 -0.1224 0.0487
v  -0.1122 -0.1110 0.0487
v  -0.1122 -0.0676 0.0487
v  -0.0860 -0.1224 0.0487
v  -0.0835 -0.1110 0.0487
v  0.0692 0.2885 0.0479
v  -0.0727 0.2885 0.0479
v  -0.0759 0.2800 0.0509
v  0.0559 0.2800 0.0509
v  -0.1082 0.2885 0.0479
v  -0.1082 0.2471 0.0479
v  -0.1013 0.2556 0.0509
v  -0.1013 0.2800 0.0509
v  -0.0844 0.2471 0.0479
v  -0.0828 0.2556 0.0509
v  0.0458 0.2471 0.0479
v  0.0421 0.2556 0.0509
v  0.0757 0.0687 0.0397
v  0.0476 0.1098 0.0397
v  0.0443 0.1013 0.0397
v  0.0609 0.0772 0.0397
v  -0.0831 0.1098 0.0397
v  -0.0813 0.1013 0.0397
v  -0.1074 0.1098 0.0397
v  -0.1074 0.0687 0.0397
v  -0.1004 0.0772 0.0397
v  -0.1004 0.1013 0.0397
v  -0.0690 0.0687 0.0397
v  -0.0730 0.0772 0.0397
v  -0.1122 -0.2895 0.0417
v  -0.0724 -0.2895 0.0417
v  -0.0757 -0.2805 0.0417
v  -0.1049 -0.2805 0.0417
v  0.0738 -0.2895 0.0417
v  0.0493 -0.2461 0.0417
v  0.0454 -0.2550 0.0417
v  0.0599 -0.2805 0.0417
v  -0.0847 -0.2461 0.0417
v  -0.0830 -0.2550 0.0417
v  -0.1122 -0.2461 0.0417
v  -0.1049 -0.2550 0.0417
v  0.0517 -0.1110 0.0418
v  0.0815 -0.0676 0.0418
v  0.0658 -0.0765 0.0418
v  0.0483 -0.1020 0.0418
v  -0.0686 -0.0676 0.0418
v  -0.0728 -0.0765 0.0418
v  -0.1122 -0.0676 0.0418
v  -0.1122 -0.1110 0.0418
v  -0.1049 -0.1020 0.0418
v  -0.1049 -0.0765 0.0418
v  -0.0835 -0.1110 0.0418
v  -0.0815 -0.1020 0.0418
v  -0.0929 0.2584 0.0445
v  -0.0929 0.2771 0.0445
v  -0.0919 0.0796 0.0373
v  -0.0919 0.0989 0.0373
v  0.0658 -0.0810 0.0369
v  0.0454 -0.2600 0.0374
v  0.0940 -0.3124 0.0629
v  -0.1310 -0.3124 -0.0872
v  0.1217 -0.0250 -0.0872
v  0.1217 0.0250 -0.0872
v  0.1047 0.3124 -0.0579
v  0.0940 0.3124 -0.0872
v  0.0591 0.2231 -0.0872
v  0.1013 0.2978 -0.0872
v  0.0594 0.2035 0.0629
v  0.0602 0.1535 0.0629
v  0.0602 0.1535 -0.0872
v  0.0594 0.2035 -0.0872
v  0.1217 0.0446 -0.0872
v  0.0605 0.1339 -0.0872
v  0.0602 -0.1535 0.0629
v  0.0594 -0.2035 0.0629
v  -0.1310 -0.2231 -0.0872
v  -0.1310 -0.1535 -0.0872
v  -0.1310 -0.2035 -0.0872
v  -0.1310 -0.0446 -0.0872
v  -0.1310 -0.1339 -0.0872
v  0.1036 0.3087 0.0629
v  0.1003 0.3115 0.0629
v  0.1039 0.3042 0.0629
v  0.1003 -0.3115 0.0629
v  0.1036 -0.3087 0.0629
v  0.1039 -0.3042 0.0629
v  0.1104 -0.3115 -0.0595
v  0.1104 -0.3115 0.0352
v  0.1133 -0.3088 -0.0607
v  0.1133 -0.3088 0.0364
v  0.1047 0.3124 0.0336
v  0.1104 0.3115 0.0352
v  0.1104 0.3115 -0.0595
v  0.1133 0.3088 0.0364
v  0.1133 0.3088 -0.0607
v  0.1135 0.3044 -0.0614
v  0.1135 0.3044 0.0370
v  0.1135 -0.3044 0.0370
v  0.1135 -0.3044 -0.0614
v  0.0785 0.0128 0.0872
v  0.0838 0.0331 0.0872
v  -0.0968 0.0331 0.0872
v  -0.0938 0.0128 0.0872
v  -0.1080 -0.0191 0.0872
v  -0.1080 -0.0331 0.0872
v  -0.0968 -0.0331 0.0872
v  -0.0938 -0.0128 0.0872
v  0.0164 0.1913 0.0872
v  0.0201 0.2116 0.0872
v  -0.1045 0.2116 0.0872
v  -0.1041 0.1913 0.0872
v  -0.1130 0.1599 0.0872
v  -0.1130 0.1455 0.0872
v  -0.1039 0.1455 0.0872
v  -0.1038 0.1657 0.0872
v  -0.1130 -0.2116 0.0872
v  -0.1047 -0.2116 0.0872
v  0.0182 -0.1657 0.0872
v  0.0224 -0.1455 0.0872
v  -0.1042 -0.1455 0.0872
v  -0.1135 0.0384 0.0820
v  -0.1178 0.2170 0.0820
v  -0.1178 -0.1401 0.0820
v  -0.1080 0.0191 0.0872
v  0.1003 0.3115 -0.0872
v  0.1036 0.3087 -0.0872
v  0.1039 0.3042 -0.0872
v  -0.1130 0.1971 0.0872
v  0.0599 -0.2755 0.0374
v  -0.0993 -0.1869 0.0820
v  0.0365 -0.1869 0.0820
v  0.0370 -0.1701 0.0820
v  -0.0990 -0.1701 0.0820
v  0.0483 -0.0975 0.0369
v  0.1042 -0.0384 0.0820
v  0.0471 0.1401 0.0820
v  0.0460 -0.2170 0.0820
v  -0.1080 0.0331 0.0872
v  0.0838 -0.0331 0.0872
v  0.0785 -0.0128 0.0872
v  -0.1130 0.2116 0.0872
v  0.0211 0.1455 0.0872
v  0.0169 0.1657 0.0872
v  0.0214 -0.2116 0.0872
v  0.0177 -0.1913 0.0872
v  -0.1130 -0.1455 0.0872
v  -0.1169 -0.1575 0.0843
v  -0.1168 -0.1411 0.0844
v  -0.1169 -0.1995 0.0843
v  -0.1168 -0.2160 0.0844
v  -0.1058 -0.2161 0.0842
v  0.0360 -0.2161 0.0842
v  0.0253 -0.2143 0.0864
v  0.0371 -0.1409 0.0842
v  0.0264 -0.1427 0.0864
v  -0.1053 -0.1409 0.0842
v  0.0873 -0.0358 0.0864
v  0.0960 -0.0376 0.0842
v  0.0960 0.0376 0.0842
v  0.0873 0.0358 0.0864
v  -0.0985 0.0376 0.0842
v  -0.1121 0.0374 0.0846
v  -0.1122 0.0210 0.0844
v  -0.1122 -0.0210 0.0844
v  -0.1121 -0.0374 0.0846
v  -0.0985 -0.0376 0.0842
v  0.0253 0.1427 0.0864
v  0.0366 0.1409 0.0842
v  0.0355 0.2161 0.0842
v  0.0242 0.2143 0.0864
v  -0.1054 0.2161 0.0842
v  -0.1168 0.2160 0.0844
v  -0.1169 0.1995 0.0843
v  -0.1169 0.1575 0.0843
v  -0.1168 0.1411 0.0844
v  -0.1048 0.1409 0.0842
v  -0.1153 -0.1584 0.0865
v  -0.1153 -0.1986 0.0865
v  -0.0975 0.0358 0.0864
v  -0.1104 -0.0202 0.0865
v  -0.1104 -0.0358 0.0865
v  -0.0975 -0.0358 0.0864
v  -0.1047 0.2143 0.0864
v  -0.1153 0.1584 0.0865
v  -0.1153 0.1427 0.0865
v  -0.1042 0.1427 0.0864
v  -0.1153 -0.2143 0.0865
v  -0.1051 -0.2143 0.0864
v  -0.1046 -0.1427 0.0864
v  -0.1104 0.0202 0.0865
v  -0.1153 0.1986 0.0865
v  -0.1104 0.0358 0.0865
v  -0.1153 0.2143 0.0865
v  -0.1153 -0.1427 0.0865
# 436 vertices

vn -0.7071 0.0000 -0.7071
vn -0.0000 0.0000 -1.0000
vn 0.3419 0.1353 0.9300
vn 0.3419 -0.1353 0.9300
vn 0.3142 -0.3353 0.8882
vn 0.3142 0.3353 0.8882
vn 0.0822 -0.9965 -0.0134
vn 0.0822 -0.9965 0.0134
vn -0.0000 -1.0000 -0.0000
vn 0.0000 -1.0000 -0.0000
vn 0.9848 -0.0000 0.1738
vn 0.9848 0.0000 -0.1738
vn -0.7071 0.7071 0.0000
vn 0.0000 1.0000 0.0000
vn -0.0000 1.0000 0.0000
vn -1.0000 0.0000 -0.0000
vn -0.5774 0.5774 -0.5774
vn -0.0000 0.7071 -0.7071
vn 0.0000 0.0000 -1.0000
vn 0.4911 0.1184 -0.8630
vn 0.5390 0.2668 -0.7989
vn 0.6165 0.1061 -0.7801
vn 0.5839 -0.3322 -0.7408
vn 0.2541 -0.6696 -0.6980
vn 0.0403 -0.7145 -0.6985
vn 0.0000 -0.7071 -0.7071
vn 0.5734 -0.0085 -0.8192
vn 0.6118 -0.2039 -0.7643
vn 0.4774 -0.1427 -0.8670
vn -0.1459 0.5304 0.8351
vn -0.3389 -0.3387 0.8777
vn 0.0000 -0.5453 0.8382
vn 0.0000 0.5453 0.8382
vn 0.3881 0.1042 0.9157
vn 0.3777 -0.0865 0.9219
vn 0.3812 -0.3248 0.8656
vn 0.3690 0.3335 0.8675
vn -0.1348 0.2696 0.9535
vn -0.0535 -0.3799 0.9235
vn -0.0000 -0.3885 0.9214
vn 0.0000 0.3885 0.9214
vn 0.6361 -0.2705 0.7227
vn 0.6361 0.2705 0.7227
vn 0.0000 0.3505 0.9366
vn -0.0000 -0.3505 0.9366
vn -0.1528 -0.0000 0.9883
vn 0.1302 0.1348 0.9823
vn 0.1308 -0.1378 0.9818
vn 0.6272 -0.3115 0.7139
vn 0.6272 0.3115 0.7139
vn 0.0000 0.3999 0.9166
vn -0.0000 -0.3999 0.9166
vn 0.8885 -0.4302 -0.1595
vn 0.8885 -0.4302 0.1595
vn 0.9525 -0.2506 0.1731
vn 0.9525 -0.2506 -0.1731
vn 0.9847 0.0146 0.1737
vn 0.9847 0.0146 0.1738
vn 0.9847 0.0146 -0.1737
vn 0.9847 0.0146 -0.1738
vn 0.9358 0.3086 -0.1704
vn 0.9358 0.3087 0.1704
vn 0.9448 0.2844 0.1625
vn 0.9448 0.2844 -0.1624
vn 0.8885 0.4302 0.1595
vn 0.8885 0.4302 -0.1595
vn 0.9525 0.2506 -0.1730
vn 0.9525 0.2506 0.1730
vn 0.9847 -0.0146 -0.1737
vn 0.9847 -0.0146 0.1737
vn 0.9847 -0.0146 0.1738
vn 0.9358 -0.3087 0.1704
vn 0.9358 -0.3087 -0.1704
vn 0.9448 -0.2844 -0.1625
vn 0.9448 -0.2844 0.1624
vn -0.7071 -0.7071 -0.0000
vn 0.7770 -0.0000 0.6295
vn 0.7272 0.3336 0.5999
vn 0.0000 0.5883 0.8087
vn 0.0000 0.9398 0.3418
vn 0.4689 0.4202 0.7769
vn -0.9320 -0.0000 0.3624
vn -0.8152 -0.0000 0.5791
vn -0.8224 -0.1619 0.5453
vn -0.0000 -0.5883 0.8087
vn -0.0000 -0.9398 0.3418
vn -0.4862 -0.6457 0.5888
vn 0.6707 0.0585 0.7394
vn 0.4992 0.4296 0.7525
vn -0.9546 -0.0000 0.2980
vn -0.8798 -0.0000 0.4754
vn -0.8346 -0.1861 0.5184
vn -0.5388 -0.6499 0.5360
vn 0.6588 0.0279 0.7518
vn 0.5027 0.4257 0.7523
vn -0.8792 -0.0000 0.4765
vn -0.5387 -0.6496 0.5365
vn 0.0000 0.0000 1.0000
vn 0.0403 0.7145 0.6985
vn 0.0000 0.7071 0.7071
vn 0.0000 -0.7071 0.7071
vn -0.2505 -0.1462 0.9570
vn -0.5774 0.5774 0.5774
vn -0.8346 0.1861 0.5184
vn 0.3015 0.3015 0.9045
vn 0.3015 -0.3015 0.9045
vn 0.5390 -0.2668 0.7989
vn -0.2736 0.4688 0.8399
vn 0.6588 -0.0279 0.7518
vn -0.2610 -0.4956 0.8284
vn -0.2350 0.1238 0.9641
vn -0.0000 -0.7071 0.7071
vn -0.8224 0.1619 0.5453
vn -0.5774 -0.5774 0.5774
vn 0.5390 0.2668 0.7989
vn 0.6707 -0.0585 0.7394
vn -0.2736 -0.4688 0.8399
vn -0.2505 0.1462 0.9570
vn 0.7272 -0.3336 0.5999
vn -0.2350 -0.1238 0.9641
vn -0.2610 0.4956 0.8284
vn -0.7184 -0.4193 0.5550
vn 0.0000 -0.6623 0.7492
vn -0.1653 -0.0833 0.9827
vn 0.5774 -0.5774 0.5774
vn 0.5774 0.5774 0.5774
vn 0.2277 0.1926 0.9545
vn 0.2277 -0.1926 0.9545
vn 0.0000 0.6623 0.7492
vn -0.3997 0.6848 0.6093
vn -0.2410 0.3465 0.9066
vn -0.7377 0.3885 0.5521
vn -0.3672 -0.6972 0.6157
vn -0.2223 -0.3396 0.9139
vn -0.1310 0.0584 0.9897
vn -0.0000 -0.6478 0.7618
vn 0.2035 0.1663 0.9649
vn 0.2035 -0.1663 0.9649
vn 0.0000 0.6478 0.7618
vn -0.7184 0.4193 0.5550
vn -0.3997 -0.6848 0.6093
vn -0.3672 0.6972 0.6157
vn -0.7377 -0.3885 0.5522
vn -0.5020 -0.4080 0.7625
vn 0.0000 -0.5248 0.8513
vn 0.0000 -0.3943 0.9190
vn 0.0538 0.0144 0.9984
vn 0.3717 -0.5198 0.7692
vn 0.3717 0.5198 0.7692
vn -0.0300 -0.0199 0.9994
vn -0.0300 0.0199 0.9994
vn 0.0000 0.5248 0.8513
vn 0.0000 0.3943 0.9190
vn -0.2397 0.5686 0.7869
vn -0.0357 0.0243 0.9991
vn -0.4904 0.3988 0.7749
vn -0.2344 -0.6342 0.7367
vn -0.0753 -0.1004 0.9921
vn -0.0354 0.0155 0.9993
vn 0.3700 -0.5537 0.7460
vn 0.3700 0.5537 0.7460
vn 0.0578 0.0437 0.9974
vn 0.0578 -0.0437 0.9974
vn 0.1188 0.1710 0.9781
vn -0.1079 -0.2327 0.9666
vn -0.1068 0.1098 0.9882
vn 0.1188 -0.1710 0.9781
vn -0.1185 -0.1104 0.9868
vn -0.1205 0.2775 0.9531
vn 0.1382 0.1935 0.9713
vn 0.1382 -0.1935 0.9713
vn 0.2356 0.4724 0.8493
vn 0.2356 -0.4724 0.8493
vn 0.0899 0.3502 0.9323
vn 0.0899 -0.3502 0.9323
vn -0.8648 0.0665 0.4978
vn -0.2282 -0.4015 0.8870
vn 0.0403 -0.7145 0.6985
vn -0.5774 -0.5774 -0.5774
vn 0.5735 0.0000 -0.8192
vn 0.0822 0.9965 -0.0134
vn 0.0403 0.7145 -0.6985
vn 0.4911 -0.1184 -0.8630
vn 0.5390 -0.2668 -0.7989
vn 0.8161 0.0121 0.5778
vn 0.8180 0.0121 0.5751
vn 0.5734 0.0085 -0.8192
vn 0.6118 0.2039 -0.7643
vn 0.4774 0.1427 -0.8670
vn 0.8182 -0.0121 0.5748
vn 0.8163 -0.0121 0.5775
vn 0.5839 0.3322 0.7408
vn 0.2541 0.6696 0.6980
vn 0.6165 -0.1061 0.7801
vn 0.2541 -0.6696 0.6980
vn 0.5839 -0.3322 0.7408
vn 0.6165 0.1061 0.7801
vn 0.4391 -0.8956 -0.0713
vn 0.4391 -0.8956 0.0713
vn 0.8917 -0.4253 -0.1548
vn 0.8917 -0.4253 0.1548
vn 0.0822 0.9965 0.0134
vn 0.4391 0.8956 0.0713
vn 0.4391 0.8956 -0.0713
vn 0.8917 0.4253 0.1548
vn 0.8917 0.4253 -0.1548
vn 0.9714 -0.1591 -0.1765
vn 0.9714 -0.1591 0.1765
vn 0.9714 0.1591 0.1765
vn 0.9714 0.1591 -0.1765
vn 0.1050 -0.3919 0.9140
vn 0.1066 0.0786 0.9912
vn 0.0000 0.1336 0.9910
vn 0.1222 -0.1198 0.9853
vn -0.1395 -0.0000 0.9902
vn -0.1035 -0.0856 0.9909
vn -0.0000 -0.1336 0.9910
vn 0.1222 0.1198 0.9853
vn 0.0694 -0.3968 0.9153
vn 0.0773 0.0949 0.9925
vn 0.1302 -0.1350 0.9822
vn -0.1531 -0.0000 0.9882
vn -0.1137 -0.0897 0.9895
vn 0.1309 0.1380 0.9817
vn -0.1134 -0.0896 0.9895
vn 0.0729 -0.3966 0.9151
vn 0.0825 0.0916 0.9924
vn -0.4862 0.6457 0.5888
vn -0.5388 0.6499 0.5360
vn -0.5387 0.6496 0.5365
vn 0.2541 0.6696 -0.6980
vn 0.5839 0.3322 -0.7408
vn 0.6165 -0.1061 -0.7801
vn -0.8746 -0.0879 0.4769
vn 0.3806 0.3248 0.8658
vn 0.3810 0.0899 0.9202
vn 0.3914 -0.1077 0.9139
vn 0.3684 -0.3336 0.8678
vn -0.2190 0.4496 0.8659
vn 0.4689 -0.4202 0.7769
vn 0.5008 -0.4245 0.7543
vn 0.5012 -0.4309 0.7505
vn -0.1035 0.0856 0.9909
vn 0.1066 -0.0786 0.9912
vn 0.1050 0.3919 0.9140
vn -0.1137 0.0897 0.9895
vn 0.0777 -0.0934 0.9926
vn 0.0682 0.3978 0.9149
vn 0.0821 -0.0931 0.9923
vn 0.0742 0.3955 0.9154
vn -0.1134 0.0896 0.9895
vn -0.8760 -0.0008 0.4824
vn -0.5663 0.5719 0.5935
vn -0.8760 0.0008 0.4824
vn -0.5662 -0.5719 0.5935
vn 0.0021 -0.8693 0.4943
vn 0.1288 -0.5441 0.8291
vn 0.1047 -0.4235 0.8998
vn 0.1290 0.5421 0.8304
vn 0.1050 0.4215 0.9007
vn 0.0020 0.8693 0.4944
vn 0.1284 -0.4096 0.9032
vn 0.1591 -0.5327 0.8312
vn 0.1591 0.5327 0.8312
vn 0.1284 0.4096 0.9032
vn 0.0028 0.8697 0.4936
vn -0.5236 0.5654 0.6374
vn -0.8238 -0.0006 0.5669
vn -0.8238 0.0006 0.5669
vn -0.5236 -0.5654 0.6374
vn 0.0028 -0.8697 0.4936
vn 0.1001 -0.4228 0.9007
vn 0.1225 -0.5429 0.8308
vn 0.1224 0.5448 0.8296
vn 0.0999 0.4247 0.8998
vn 0.0020 0.8692 0.4944
vn -0.5673 0.5721 0.5924
vn -0.8771 -0.0008 0.4803
vn -0.8771 0.0008 0.4803
vn -0.5673 -0.5721 0.5923
vn 0.0019 -0.8692 0.4945
vn -0.5888 -0.0010 0.8083
vn -0.5888 0.0010 0.8083
vn 0.0027 0.5601 0.8284
vn -0.5391 0.0007 0.8423
vn -0.3519 -0.3714 0.8592
vn 0.0027 -0.5601 0.8284
vn 0.0020 0.5596 0.8288
vn -0.5900 0.0010 0.8074
vn -0.3936 -0.3762 0.8388
vn 0.0019 -0.5595 0.8288
vn -0.3925 -0.3761 0.8393
vn 0.0021 -0.5597 0.8287
vn 0.0020 0.5596 0.8287
vn -0.5391 -0.0007 0.8423
vn -0.5900 -0.0010 0.8074
vn -0.3519 0.3714 0.8592
vn -0.3935 0.3762 0.8388
vn -0.3925 0.3761 0.8393
# 299 vertex normals

vt 0.4308 0.2780 0.0000
vt 0.4284 0.2410 0.0000
vt 0.4962 0.2359 0.0000
vt 0.4988 0.2737 0.0000
vt 0.2206 0.3254 0.0000
vt 0.2206 0.3378 0.0000
vt 0.0521 0.3391 0.0000
vt 0.0515 0.3270 0.0000
vt 0.3160 0.7722 0.0000
vt 0.3848 0.7779 0.0000
vt 0.3636 0.9373 0.0000
vt 0.2918 0.9271 0.0000
vt 0.3888 0.4788 0.0000
vt 0.3888 0.5175 0.0000
vt 0.3140 0.5164 0.0000
vt 0.3141 0.4790 0.0000
vt 0.2987 0.0053 0.0000
vt 0.3748 0.0017 0.0000
vt 0.3765 0.0620 0.0000
vt 0.3031 0.0650 0.0000
vt 0.0000 0.0000 0.0000
vt 0.4143 0.0945 0.0000
vt 0.4062 0.0273 0.0000
vt 0.4607 0.0210 0.0000
vt 0.4530 0.0903 0.0000
vt 0.4200 0.1460 0.0000
vt 0.4160 0.1090 0.0000
vt 0.4549 0.1049 0.0000
vt 0.4593 0.1421 0.0000
vt 0.4272 0.2264 0.0000
vt 0.4214 0.1604 0.0000
vt 0.4608 0.1568 0.0000
vt 0.4951 0.2210 0.0000
vt 0.6147 0.4212 0.0000
vt 0.6556 0.4788 0.0000
vt 0.6517 0.4816 0.0000
vt 0.6512 0.4820 0.0000
vt 0.6491 0.4848 0.0000
vt 0.6440 0.4871 0.0000
vt 0.4931 0.4914 0.0000
vt 0.4760 0.4238 0.0000
vt 0.6137 0.3666 0.0000
vt 0.6145 0.4058 0.0000
vt 0.4758 0.4091 0.0000
vt 0.4751 0.3717 0.0000
vt 0.6661 0.2779 0.0000
vt 0.6134 0.3512 0.0000
vt 0.4746 0.3569 0.0000
vt 0.4998 0.2886 0.0000
vt 0.1704 0.5996 0.0000
vt 0.1796 0.6118 0.0000
vt 0.0687 0.6181 0.0000
vt 0.0637 0.6038 0.0000
vt 0.1793 0.5103 0.0000
vt 0.1784 0.5229 0.0000
vt 0.0452 0.5248 0.0000
vt 0.0451 0.5128 0.0000
vt 0.1824 0.4174 0.0000
vt 0.1714 0.4314 0.0000
vt 0.0653 0.4335 0.0000
vt 0.0714 0.4194 0.0000
vt 0.0457 0.0587 0.0000
vt 0.0456 0.0490 0.0000
vt 0.0677 0.0473 0.0000
vt 0.0622 0.0594 0.0000
vt 0.0260 0.1620 0.0000
vt 0.0270 0.1310 0.0000
vt 0.0369 0.1361 0.0000
vt 0.0366 0.1575 0.0000
vt 0.0445 0.2445 0.0000
vt 0.0438 0.2342 0.0000
vt 0.0619 0.2326 0.0000
vt 0.0699 0.2446 0.0000
vt 0.3120 0.2389 0.0000
vt 0.3859 0.2379 0.0000
vt 0.3833 0.3071 0.0000
vt 0.3065 0.3075 0.0000
vt 0.3832 0.3218 0.0000
vt 0.3834 0.3594 0.0000
vt 0.3074 0.3614 0.0000
vt 0.3069 0.3227 0.0000
vt 0.3072 0.3768 0.0000
vt 0.3838 0.3741 0.0000
vt 0.3886 0.4634 0.0000
vt 0.3144 0.4645 0.0000
vt 0.3879 0.7593 0.0000
vt 0.3143 0.7560 0.0000
vt 0.3084 0.6891 0.0000
vt 0.3855 0.6875 0.0000
vt 0.3086 0.6738 0.0000
vt 0.3082 0.6351 0.0000
vt 0.3844 0.6352 0.0000
vt 0.3850 0.6728 0.0000
vt 0.3844 0.6205 0.0000
vt 0.3077 0.6198 0.0000
vt 0.3142 0.5309 0.0000
vt 0.3885 0.5329 0.0000
vt 0.2535 0.3068 0.0000
vt 0.2549 0.3556 0.0000
vt 0.2526 0.3764 0.0000
vt 0.0830 0.3788 0.0000
vt 0.0424 0.3650 0.0000
vt 0.2320 0.3627 0.0000
vt 0.0042 0.3608 0.0000
vt 0.0015 0.3084 0.0000
vt 0.0248 0.3151 0.0000
vt 0.0256 0.3521 0.0000
vt 0.0062 0.2859 0.0000
vt 0.0816 0.2867 0.0000
vt 0.0402 0.3013 0.0000
vt 0.0269 0.3011 0.0000
vt 0.2038 0.5608 0.0000
vt 0.0550 0.5650 0.0000
vt 0.0394 0.5505 0.0000
vt 0.1858 0.5476 0.0000
vt 0.0066 0.5450 0.0000
vt 0.0045 0.4942 0.0000
vt 0.0247 0.5009 0.0000
vt 0.0251 0.5373 0.0000
vt 0.0103 0.4719 0.0000
vt 0.0551 0.4732 0.0000
vt 0.0390 0.4876 0.0000
vt 0.0267 0.4876 0.0000
vt 0.2034 0.1929 0.0000
vt 0.0505 0.1924 0.0000
vt 0.0335 0.1781 0.0000
vt 0.1848 0.1794 0.0000
vt 0.0000 0.1714 0.0000
vt 0.0007 0.1190 0.0000
vt 0.0204 0.1278 0.0000
vt 0.0191 0.1648 0.0000
vt 0.0078 0.0975 0.0000
vt 0.0511 0.1013 0.0000
vt 0.0345 0.1154 0.0000
vt 0.0231 0.1147 0.0000
vt 0.2298 0.6405 0.0000
vt 0.2273 0.6463 0.0000
vt 0.0702 0.6600 0.0000
vt 0.0740 0.6511 0.0000
vt 0.2247 0.6373 0.0000
vt 0.0089 0.6457 0.0000
vt 0.0130 0.5658 0.0000
vt 0.0219 0.5768 0.0000
vt 0.0190 0.6375 0.0000
vt 0.0574 0.5729 0.0000
vt 0.2338 0.6362 0.0000
vt 0.1978 0.5701 0.0000
vt 0.2053 0.4713 0.0000
vt 0.1998 0.4619 0.0000
vt 0.2348 0.3878 0.0000
vt 0.0578 0.4656 0.0000
vt 0.0094 0.3821 0.0000
vt 0.0190 0.3926 0.0000
vt 0.0194 0.4602 0.0000
vt 0.0788 0.3866 0.0000
vt 0.0075 0.0139 0.0000
vt 0.0687 0.0009 0.0000
vt 0.0723 0.0098 0.0000
vt 0.0172 0.0230 0.0000
vt 0.2210 0.0228 0.0000
vt 0.2253 0.0271 0.0000
vt 0.2013 0.1041 0.0000
vt 0.1951 0.0950 0.0000
vt 0.2163 0.0253 0.0000
vt 0.0540 0.0937 0.0000
vt 0.0171 0.0866 0.0000
vt 0.2503 0.2863 0.0000
vt 0.2322 0.2754 0.0000
vt 0.1983 0.2020 0.0000
vt 0.0769 0.2789 0.0000
vt 0.0057 0.1946 0.0000
vt 0.0152 0.2065 0.0000
vt 0.0156 0.2749 0.0000
vt 0.0535 0.1999 0.0000
vt 0.2210 0.6342 0.0000
vt 0.0743 0.6457 0.0000
vt 0.0709 0.6370 0.0000
vt 0.2061 0.6261 0.0000
vt 0.0232 0.6344 0.0000
vt 0.0257 0.5804 0.0000
vt 0.0344 0.5897 0.0000
vt 0.0326 0.6270 0.0000
vt 0.0577 0.5778 0.0000
vt 0.0604 0.5858 0.0000
vt 0.1947 0.5746 0.0000
vt 0.1886 0.5832 0.0000
vt 0.2248 0.3951 0.0000
vt 0.1945 0.4519 0.0000
vt 0.1884 0.4438 0.0000
vt 0.2094 0.4043 0.0000
vt 0.0586 0.4551 0.0000
vt 0.0616 0.4472 0.0000
vt 0.0288 0.4514 0.0000
vt 0.0267 0.4004 0.0000
vt 0.0359 0.4085 0.0000
vt 0.0367 0.4433 0.0000
vt 0.0800 0.3973 0.0000
vt 0.0758 0.4054 0.0000
vt 0.0244 0.0296 0.0000
vt 0.0732 0.0211 0.0000
vt 0.0701 0.0300 0.0000
vt 0.0335 0.0371 0.0000
vt 0.2080 0.0323 0.0000
vt 0.1894 0.0859 0.0000
vt 0.1829 0.0775 0.0000
vt 0.1956 0.0400 0.0000
vt 0.0550 0.0837 0.0000
vt 0.0581 0.0757 0.0000
vt 0.0259 0.0789 0.0000
vt 0.0339 0.0709 0.0000
vt 0.1926 0.2115 0.0000
vt 0.2243 0.2690 0.0000
vt 0.2074 0.2597 0.0000
vt 0.1874 0.2197 0.0000
vt 0.0773 0.2690 0.0000
vt 0.0732 0.2610 0.0000
vt 0.0239 0.2668 0.0000
vt 0.0223 0.2135 0.0000
vt 0.0313 0.2221 0.0000
vt 0.0322 0.2581 0.0000
vt 0.0547 0.2093 0.0000
vt 0.0579 0.2170 0.0000
vt 0.1993 0.6217 0.0000
vt 0.0711 0.6306 0.0000
vt 0.0687 0.6236 0.0000
vt 0.1882 0.6159 0.0000
vt 0.0394 0.6239 0.0000
vt 0.0404 0.5937 0.0000
vt 0.0469 0.6000 0.0000
vt 0.0462 0.6186 0.0000
vt 0.0611 0.5918 0.0000
vt 0.0631 0.5984 0.0000
vt 0.1828 0.5883 0.0000
vt 0.1783 0.5947 0.0000
vt 0.2016 0.4086 0.0000
vt 0.1828 0.4395 0.0000
vt 0.1787 0.4336 0.0000
vt 0.1904 0.4148 0.0000
vt 0.0625 0.4420 0.0000
vt 0.0646 0.4359 0.0000
vt 0.0430 0.4400 0.0000
vt 0.0421 0.4122 0.0000
vt 0.0484 0.4177 0.0000
vt 0.0487 0.4346 0.0000
vt 0.0755 0.4108 0.0000
vt 0.0721 0.4170 0.0000
vt 0.0368 0.0397 0.0000
vt 0.0702 0.0351 0.0000
vt 0.0678 0.0421 0.0000
vt 0.0433 0.0451 0.0000
vt 0.1924 0.0433 0.0000
vt 0.1801 0.0736 0.0000
vt 0.1749 0.0674 0.0000
vt 0.1831 0.0488 0.0000
vt 0.0590 0.0710 0.0000
vt 0.0614 0.0644 0.0000
vt 0.0376 0.0681 0.0000
vt 0.0434 0.0627 0.0000
vt 0.1845 0.2239 0.0000
vt 0.2038 0.2564 0.0000
vt 0.1919 0.2500 0.0000
vt 0.1802 0.2300 0.0000
vt 0.0733 0.2560 0.0000
vt 0.0699 0.2496 0.0000
vt 0.0360 0.2547 0.0000
vt 0.0348 0.2249 0.0000
vt 0.0414 0.2304 0.0000
vt 0.0421 0.2487 0.0000
vt 0.0587 0.2217 0.0000
vt 0.0613 0.2279 0.0000
vt 0.0548 0.6037 0.0000
vt 0.0548 0.6160 0.0000
vt 0.0558 0.4198 0.0000
vt 0.0559 0.4329 0.0000
vt 0.1886 0.2464 0.0000
vt 0.1731 0.0629 0.0000
vt 0.4055 0.7910 0.0000
vt 0.3836 0.9452 0.0000
vt 0.2814 0.9862 0.0000
vt 0.2621 0.9832 0.0000
vt 0.2704 0.9287 0.0000
vt 0.2752 0.3047 0.0000
vt 0.2771 0.3572 0.0000
vt 0.2927 0.5172 0.0000
vt 0.2928 0.4783 0.0000
vt 0.3944 0.0009 0.0000
vt 0.3972 0.0563 0.0000
vt 0.3140 0.2228 0.0000
vt 0.2913 0.2174 0.0000
vt 0.2820 0.0616 0.0000
vt 0.2560 0.6350 0.0000
vt 0.2271 0.5600 0.0000
vt 0.2850 0.3086 0.0000
vt 0.2916 0.2385 0.0000
vt 0.2058 0.5404 0.0000
vt 0.2069 0.4923 0.0000
vt 0.2286 0.4925 0.0000
vt 0.2281 0.5414 0.0000
vt 0.2862 0.3607 0.0000
vt 0.2856 0.3232 0.0000
vt 0.2287 0.4738 0.0000
vt 0.2747 0.3783 0.0000
vt 0.2937 0.4626 0.0000
vt 0.2859 0.3749 0.0000
vt 0.2937 0.7562 0.0000
vt 0.2869 0.6882 0.0000
vt 0.2250 0.1031 0.0000
vt 0.2475 0.0233 0.0000
vt 0.2873 0.6738 0.0000
vt 0.2870 0.6363 0.0000
vt 0.2048 0.1720 0.0000
vt 0.2037 0.1243 0.0000
vt 0.2262 0.1222 0.0000
vt 0.2267 0.1716 0.0000
vt 0.2864 0.6221 0.0000
vt 0.2936 0.5330 0.0000
vt 0.2724 0.2846 0.0000
vt 0.2268 0.1904 0.0000
vt 0.2358 0.6446 0.0000
vt 0.2327 0.6464 0.0000
vt 0.2363 0.6412 0.0000
vt 0.2193 0.0161 0.0000
vt 0.2242 0.0184 0.0000
vt 0.2264 0.0204 0.0000
vt 0.2268 0.0230 0.0000
vt 0.3156 0.7672 0.0000
vt 0.3862 0.7722 0.0000
vt 0.3153 0.7641 0.0000
vt 0.3871 0.7686 0.0000
vt 0.3822 0.2203 0.0000
vt 0.3832 0.2257 0.0000
vt 0.3136 0.2278 0.0000
vt 0.3840 0.2291 0.0000
vt 0.3131 0.2310 0.0000
vt 0.3126 0.2341 0.0000
vt 0.3848 0.2325 0.0000
vt 0.3877 0.7650 0.0000
vt 0.3148 0.7609 0.0000
vt 0.6651 0.2627 0.0000
vt 0.2085 0.3427 0.0000
vt 0.2128 0.3572 0.0000
vt 0.0445 0.3590 0.0000
vt 0.0467 0.3439 0.0000
vt 0.0320 0.3175 0.0000
vt 0.0326 0.3070 0.0000
vt 0.0430 0.3072 0.0000
vt 0.0460 0.3222 0.0000
vt 0.5973 0.1282 0.0000
vt 0.5992 0.1435 0.0000
vt 0.4356 0.3732 0.0000
vt 0.4350 0.3587 0.0000
vt 0.1582 0.5279 0.0000
vt 0.1610 0.5423 0.0000
vt 0.0407 0.5445 0.0000
vt 0.0405 0.5296 0.0000
vt 0.0314 0.5037 0.0000
vt 0.0321 0.4932 0.0000
vt 0.0404 0.4935 0.0000
vt 0.0405 0.5082 0.0000
vt 0.0281 0.1206 0.0000
vt 0.0358 0.1213 0.0000
vt 0.1573 0.1592 0.0000
vt 0.1603 0.1735 0.0000
vt 0.0350 0.1723 0.0000
vt 0.0288 0.3656 0.0000
vt 0.0279 0.5504 0.0000
vt 0.0215 0.1783 0.0000
vt 0.6625 0.2240 0.0000
vt 0.0328 0.3492 0.0000
vt 0.3561 0.9972 0.0000
vt 0.6109 0.0047 0.0000
vt 0.6162 0.0063 0.0000
vt 0.6186 0.0088 0.0000
vt 0.6192 0.0090 0.0000
vt 0.6235 0.0113 0.0000
vt 0.5908 0.0739 0.0000
vt 0.5927 0.0893 0.0000
vt 0.6614 0.2089 0.0000
vt 0.4382 0.4926 0.0000
vt 0.4370 0.4250 0.0000
vt 0.4367 0.4104 0.0000
vt 0.4318 0.2926 0.0000
vt 0.0318 0.5342 0.0000
vt 0.1800 0.0525 0.0000
vt 0.0413 0.1409 0.0000
vt 0.1759 0.1422 0.0000
vt 0.1767 0.1548 0.0000
vt 0.0415 0.1529 0.0000
vt 0.1781 0.2345 0.0000
vt 0.2302 0.3003 0.0000
vt 0.1872 0.4852 0.0000
vt 0.1834 0.1176 0.0000
vt 0.3754 1.0000 0.0000
vt 0.2928 0.7764 0.0000
vt 0.4042 0.2118 0.0000
vt 0.2792 0.0064 0.0000
vt 0.0342 0.3596 0.0000
vt 0.2117 0.3062 0.0000
vt 0.2078 0.3207 0.0000
vt 0.0330 0.5448 0.0000
vt 0.1622 0.4914 0.0000
vt 0.1588 0.5059 0.0000
vt 0.1597 0.1230 0.0000
vt 0.1565 0.1373 0.0000
vt 0.0268 0.1726 0.0000
vt 0.2420 0.0053 0.0000
vt 0.2450 0.0099 0.0000
vt 0.2465 0.0134 0.0000
vt 0.2942 0.7702 0.0000
vt 0.2950 0.7661 0.0000
vt 0.4039 0.2183 0.0000
vt 0.4038 0.2223 0.0000
vt 0.2925 0.2240 0.0000
vt 0.2931 0.2282 0.0000
vt 0.4069 0.2312 0.0000
vt 0.4046 0.2260 0.0000
vt 0.2929 0.2323 0.0000
vt 0.2948 0.7622 0.0000
vt 0.2472 0.0172 0.0000
vt 0.0212 0.1642 0.0000
vt 0.0231 0.1765 0.0000
vt 0.0224 0.1286 0.0000
vt 0.0247 0.1165 0.0000
vt 0.0350 0.1171 0.0000
vt 0.1737 0.1191 0.0000
vt 0.1634 0.1210 0.0000
vt 0.1746 0.1777 0.0000
vt 0.1641 0.1756 0.0000
vt 0.0341 0.1764 0.0000
vt 0.2147 0.3041 0.0000
vt 0.2226 0.3021 0.0000
vt 0.2241 0.3612 0.0000
vt 0.2160 0.3592 0.0000
vt 0.0431 0.3633 0.0000
vt 0.0305 0.3636 0.0000
vt 0.0280 0.3513 0.0000
vt 0.0272 0.3157 0.0000
vt 0.0287 0.3030 0.0000
vt 0.0411 0.3030 0.0000
vt 0.1661 0.4893 0.0000
vt 0.1769 0.4871 0.0000
vt 0.1755 0.5462 0.0000
vt 0.1648 0.5443 0.0000
vt 0.0399 0.5488 0.0000
vt 0.0294 0.5487 0.0000
vt 0.0271 0.5366 0.0000
vt 0.0267 0.5015 0.0000
vt 0.0284 0.4893 0.0000
vt 0.0396 0.4893 0.0000
vt 0.0236 0.1632 0.0000
vt 0.0247 0.1296 0.0000
vt 0.0440 0.3611 0.0000
vt 0.0296 0.3165 0.0000
vt 0.0305 0.3049 0.0000
vt 0.0422 0.3051 0.0000
vt 0.0405 0.5466 0.0000
vt 0.0291 0.5024 0.0000
vt 0.0301 0.4911 0.0000
vt 0.0402 0.4914 0.0000
vt 0.0263 0.1184 0.0000
vt 0.0355 0.1192 0.0000
vt 0.0347 0.1744 0.0000
vt 0.0304 0.3503 0.0000
vt 0.0295 0.5356 0.0000
vt 0.0323 0.3618 0.0000
vt 0.0311 0.5469 0.0000
vt 0.0248 0.1746 0.0000
# 467 texture coords

o Box011
g Box011
usemtl wire_115115115
s 1
f 1/1/1 2/2/1 3/3/2 4/4/2 
f 5/5/3 6/6/4 7/7/5 8/8/6 
s 2
f 9/9/7 10/10/8 11/11/9 12/12/10 
f 13/13/11 14/14/11 15/15/12 16/16/12 
f 17/17/13 18/18/13 19/19/14 20/20/15 
s 4
f 21/21/16 22/21/16 23/21/16 24/21/16 
s 1
f 25/22/1 26/23/17 27/24/18 28/25/2 
f 29/26/1 30/27/1 31/28/19 32/29/2 
f 33/30/1 34/31/1 35/32/2 36/33/2 
f 37/34/20 38/35/21 39/36/22 40/37/23 41/38/24 42/39/25 43/40/26 44/41/2 
f 45/42/27 46/43/27 47/44/2 48/45/2 
f 49/46/28 50/47/29 51/48/2 52/49/2 
f 53/50/30 54/51/31 55/52/32 56/53/33 
f 57/54/34 58/55/35 59/56/36 60/57/37 
f 61/58/38 62/59/39 63/60/40 64/61/41 
f 65/62/42 66/63/43 67/64/44 68/65/45 
f 69/66/46 70/67/46 71/68/47 72/69/48 
f 73/70/49 74/71/50 75/72/51 76/73/52 
s 4
f 77/74/53 78/75/54 79/76/55 80/77/56 
s 2
f 81/78/57 82/79/58 83/80/59 84/81/60 
s 4
f 85/82/61 86/83/62 87/84/63 88/85/64 
f 89/86/65 90/87/66 91/88/67 92/89/68 
s 2
f 93/90/69 94/91/69 95/92/70 96/93/71 
s 4
f 97/94/72 98/95/73 99/96/74 100/97/75 
f 101/21/76 102/21/76 103/21/16 104/21/16 
f 105/21/16 106/21/16 107/21/16 108/21/16 
f 109/21/16 110/21/16 111/21/16 112/21/16 
f 18/21/13 17/21/13 113/21/16 114/21/16 
f 115/21/16 116/21/16 117/21/16 118/21/16 
f 119/21/16 120/21/16 121/21/16 122/21/16 
s 2
f 123/98/77 124/99/77 6/6/4 5/5/3 
s 1
f 125/100/78 126/101/79 127/102/80 128/103/81 
s 8
f 129/104/82 130/105/82 131/106/83 132/107/83 
s 1
f 133/108/84 134/109/85 135/110/86 136/111/87 
f 137/112/88 138/113/79 139/114/80 140/115/89 
s 2
f 141/116/90 142/117/90 143/118/91 144/119/91 
s 1
f 145/120/92 146/121/85 147/122/86 148/123/93 
s 8
f 149/124/94 150/125/79 151/126/80 152/127/95 
s 2
f 153/128/90 154/129/90 155/130/96 156/131/96 
s 8
f 157/132/92 158/133/85 159/134/86 160/135/97 
f 161/136/98 162/137/99 163/138/100 164/139/101 165/140/102 
f 166/141/103 167/142/104 168/143/105 169/144/106 
f 167/142/104 138/113/79 170/145/100 168/143/105 
f 137/112/88 171/146/107 161/136/98 165/140/102 172/147/108 
s 16
f 125/100/78 173/148/109 174/149/110 175/150/111 
f 173/148/109 146/121/85 176/151/112 174/149/110 
f 145/120/92 177/152/113 178/153/105 179/154/106 
f 177/152/113 126/101/79 180/155/100 178/153/105 
s 1
f 181/156/114 182/157/101 183/158/100 184/159/105 
f 185/160/98 186/161/115 187/162/116 188/163/117 189/164/118 
f 187/162/116 158/133/85 190/165/112 188/163/117 
f 157/132/92 181/156/114 184/159/105 191/166/106 
s 16
f 149/124/94 192/167/119 193/168/120 194/169/121 
f 192/167/119 134/109/85 195/170/112 193/168/120 
f 133/108/84 196/171/104 197/172/105 198/173/106 
f 196/171/104 150/125/79 199/174/100 197/172/105 
s 1
f 200/175/122 201/176/101 202/177/123 203/178/124 
f 204/179/125 205/180/126 206/181/127 207/182/128 
f 205/180/126 208/183/100 209/184/129 206/181/127 
f 210/185/130 200/175/122 203/178/124 211/186/131 
f 212/187/132 213/188/133 214/189/134 215/190/135 
f 213/188/133 216/191/112 217/192/136 214/189/134 
f 218/193/125 219/194/126 220/195/137 221/196/138 
f 219/194/126 222/197/100 223/198/139 220/195/137 
f 224/199/126 225/200/100 226/201/100 227/202/105 
f 228/203/140 229/204/141 230/205/117 231/206/118 
f 229/204/141 232/207/112 233/208/112 230/205/117 
f 234/209/125 224/199/126 227/202/105 235/210/106 
f 236/211/142 237/212/143 238/213/120 239/214/121 
f 237/212/143 240/215/112 241/216/112 238/213/120 
f 242/217/125 243/218/126 244/219/105 245/220/106 
f 243/218/126 246/221/100 247/222/100 244/219/105 
f 248/223/144 249/224/145 250/225/146 251/226/147 
f 252/227/148 253/228/149 254/229/150 255/230/151 
f 253/228/149 256/231/152 257/232/153 254/229/150 
f 258/233/154 248/223/144 251/226/147 259/234/155 
f 260/235/156 261/236/157 262/237/158 263/238/159 
f 261/236/157 264/239/136 265/240/40 262/237/158 
f 266/241/160 267/242/161 268/243/162 269/244/163 
f 267/242/161 270/245/139 271/246/41 268/243/162 
f 272/247/126 273/248/100 274/249/44 275/250/164 
f 276/251/140 277/252/141 278/253/165 279/254/166 
f 277/252/141 280/255/112 281/256/45 278/253/165 
f 282/257/125 272/247/126 275/250/164 283/258/167 
f 284/259/142 285/260/143 286/261/168 287/262/169 
f 285/260/143 288/263/112 289/264/52 286/261/168 
f 290/265/125 291/266/126 292/267/170 293/268/171 
f 291/266/126 294/269/100 295/270/51 292/267/170 
s 2
f 165/140/102 164/139/101 201/176/101 200/175/122 
s 4
f 169/144/106 168/143/105 205/180/126 204/179/125 
s 2
f 168/143/105 170/145/100 208/183/100 205/180/126 
s 4
f 172/147/108 165/140/102 200/175/122 210/185/130 
s 2
f 203/178/124 202/177/123 249/224/145 248/223/144 
s 4
f 207/182/128 206/181/127 253/228/149 252/227/148 
s 2
f 206/181/127 209/184/129 256/231/152 253/228/149 
s 4
f 211/186/131 203/178/124 248/223/144 258/233/154 
s 2
f 251/226/147 250/225/146 55/52/32 54/51/31 
s 4
f 255/230/151 254/229/150 296/271/172 297/272/173 
s 2
f 254/229/150 257/232/153 56/53/33 296/271/172 
f 175/150/111 174/149/110 213/188/133 212/187/132 
s 4
f 174/149/110 176/151/112 216/191/112 213/188/133 
s 2
f 179/154/106 178/153/105 219/194/126 218/193/125 
s 4
f 178/153/105 180/155/100 222/197/100 219/194/126 
s 2
f 215/190/135 214/189/134 261/236/157 260/235/156 
s 4
f 214/189/134 217/192/136 264/239/136 261/236/157 
s 2
f 221/196/138 220/195/137 267/242/161 266/241/160 
s 4
f 220/195/137 223/198/139 270/245/139 267/242/161 
s 2
f 262/237/158 265/240/40 63/60/40 62/59/39 
s 1
f 269/244/163 268/243/162 298/273/174 299/274/175 
s 2
f 268/243/162 271/246/41 64/61/41 298/273/174 
f 194/169/121 193/168/120 237/212/143 236/211/142 
s 4
f 193/168/120 195/170/112 240/215/112 237/212/143 
s 2
f 198/173/106 197/172/105 243/218/126 242/217/125 
s 4
f 197/172/105 199/174/100 246/221/100 243/218/126 
s 2
f 239/214/121 238/213/120 285/260/143 284/259/142 
s 4
f 238/213/120 241/216/112 288/263/112 285/260/143 
s 2
f 245/220/106 244/219/105 291/266/126 290/265/125 
s 4
f 244/219/105 247/222/100 294/269/100 291/266/126 
s 2
f 286/261/168 289/264/52 76/73/52 300/275/176 
s 4
f 293/268/171 292/267/170 74/71/50 73/70/49 
s 2
f 292/267/170 295/270/51 75/72/51 74/71/50 
f 184/159/105 183/158/100 225/200/100 224/199/126 
s 4
f 189/164/118 188/163/117 229/204/141 228/203/140 
s 2
f 188/163/117 190/165/112 232/207/112 229/204/141 
s 4
f 191/166/106 184/159/105 224/199/126 234/209/125 
s 2
f 227/202/105 226/201/100 273/248/100 272/247/126 
s 4
f 231/206/118 230/205/117 277/252/141 276/251/140 
s 2
f 230/205/117 233/208/112 280/255/112 277/252/141 
s 4
f 235/210/106 227/202/105 272/247/126 282/257/125 
s 2
f 275/250/164 274/249/44 67/64/44 66/63/43 
f 278/253/165 281/256/45 68/65/45 301/276/177 
s 4
f 283/258/167 275/250/164 66/63/43 65/62/42 
s 2
f 10/10/8 302/277/178 182/278/101 11/11/9 
f 101/279/76 303/280/179 43/281/26 12/12/10 
f 124/99/77 123/98/77 14/282/11 13/283/11 
f 304/284/180 305/285/180 16/16/12 15/15/12 
f 18/18/13 166/286/103 163/287/100 19/19/14 
f 306/288/181 307/289/182 27/290/18 20/20/15 
s 4
f 130/21/82 129/21/82 22/21/16 21/21/16 
f 2/21/1 1/21/1 24/21/16 23/21/16 
f 78/291/54 171/146/107 137/112/88 79/292/55 
f 80/77/56 308/293/183 309/294/184 77/74/53 
s 2
f 310/295/185 311/296/186 82/297/58 81/298/57 
f 312/299/187 313/300/187 84/81/60 83/80/59 
s 4
f 86/301/62 173/148/109 125/100/78 87/302/63 
f 88/85/64 314/303/188 315/304/189 85/82/61 
f 90/87/66 38/305/21 37/306/20 91/88/67 
f 92/307/68 187/162/116 186/161/115 89/308/65 
s 2
f 46/309/27 45/310/27 94/91/69 93/90/69 
f 316/311/190 317/312/191 96/313/71 95/314/70 
s 4
f 98/95/73 50/315/29 49/316/28 99/96/74 
f 100/317/75 192/167/119 149/124/94 97/318/72 
f 102/21/76 181/21/114 157/21/92 103/21/16 
f 104/21/16 318/21/1 303/21/179 101/21/76 
f 154/21/90 153/21/90 106/21/16 105/21/16 
f 319/21/1 320/21/1 108/21/16 107/21/16 
f 110/21/16 196/21/104 133/21/84 111/21/16 
f 112/21/16 321/21/1 322/21/1 109/21/16 
f 17/21/13 26/21/17 25/21/1 113/21/16 
f 114/21/16 167/21/104 166/21/103 18/21/13 
f 30/21/1 29/21/1 116/21/16 115/21/16 
f 142/21/90 141/21/90 118/21/16 117/21/16 
f 120/21/16 34/21/1 33/21/1 121/21/16 
f 122/21/16 177/21/113 145/21/92 119/21/16 
s 8
f 161/136/98 323/319/192 324/320/193 162/137/99 
f 171/146/107 325/321/194 323/319/192 161/136/98 
s 1
f 302/322/178 326/323/195 327/324/196 185/160/98 
f 185/160/98 327/324/196 328/325/197 186/161/115 
s 2
f 10/10/8 9/9/7 329/326/198 330/327/199 
f 330/327/199 329/326/198 331/328/200 332/329/201 
f 306/288/181 333/330/202 334/331/203 335/332/204 
f 335/332/204 334/331/203 336/333/205 337/334/206 
s 4
f 78/75/54 77/74/53 338/335/207 339/336/208 
f 339/336/208 338/335/207 337/334/206 336/333/205 
f 90/87/66 89/86/65 340/337/209 341/338/210 
f 341/338/210 340/337/209 332/329/201 331/328/200 
s 1
f 2/2/1 33/30/1 36/33/2 3/3/2 
f 304/339/180 49/46/28 52/49/2 4/4/2 
s 2
f 342/340/211 343/341/212 344/342/213 345/343/214 
f 346/344/215 347/345/216 348/346/217 349/347/218 
f 14/14/11 100/97/75 99/96/74 15/15/12 
f 16/16/12 88/85/64 87/84/63 13/13/11 
s 4
f 22/21/16 122/21/16 121/21/16 23/21/16 
f 24/21/16 112/21/16 111/21/16 21/21/16 
s 1
f 30/27/1 25/22/1 28/25/2 31/28/19 
f 312/348/187 315/349/189 35/32/2 32/29/2 
f 46/43/27 37/34/20 44/41/2 47/44/2 
f 319/350/1 322/351/1 51/48/2 48/45/2 
s 4
f 350/352/219 351/353/220 352/354/213 353/355/221 
f 354/356/222 355/357/223 356/358/217 357/359/224 
s 1
f 70/67/46 358/360/225 359/361/217 71/68/47 
f 360/362/226 361/363/227 362/364/213 72/69/48 
s 2
f 82/79/58 86/83/62 85/82/61 83/80/59 
f 84/81/60 80/77/56 79/76/55 81/78/57 
f 94/91/69 98/95/73 97/94/72 95/92/70 
f 96/93/71 92/89/68 91/88/67 93/90/69 
s 4
f 106/21/16 110/21/16 109/21/16 107/21/16 
f 108/21/16 104/21/16 103/21/16 105/21/16 
f 116/21/16 120/21/16 119/21/16 117/21/16 
f 118/21/16 114/21/16 113/21/16 115/21/16 
s 8
f 130/105/82 133/108/84 136/111/87 131/106/83 
f 132/107/83 363/365/228 177/152/113 129/104/82 
s 2
f 142/117/90 145/120/92 148/123/93 143/118/91 
f 144/119/91 364/366/229 167/142/104 141/116/90 
f 154/129/90 157/132/92 160/135/97 155/130/96 
f 156/131/96 365/367/230 196/171/104 153/128/90 
f 123/98/77 192/167/119 100/317/75 14/282/11 
f 13/283/11 87/302/63 125/100/78 124/99/77 
f 305/285/180 314/303/188 88/85/64 16/16/12 
f 15/15/12 99/96/74 49/316/28 304/284/180 
s 4
f 129/21/82 177/21/113 122/21/16 22/21/16 
f 21/21/16 111/21/16 133/21/84 130/21/82 
f 1/21/1 321/21/1 112/21/16 24/21/16 
f 23/21/16 121/21/16 33/21/1 2/21/1 
s 2
f 311/296/186 173/148/109 86/301/62 82/297/58 
f 81/298/57 79/292/55 137/112/88 310/295/185 
f 313/300/187 308/293/183 80/77/56 84/81/60 
f 83/80/59 85/82/61 315/304/189 312/299/187 
f 45/310/27 50/315/29 98/95/73 94/91/69 
f 93/90/69 91/88/67 37/306/20 46/309/27 
f 317/312/191 187/162/116 92/307/68 96/313/71 
f 95/314/70 97/318/72 149/124/94 316/311/190 
s 4
f 153/21/90 196/21/104 110/21/16 106/21/16 
f 105/21/16 103/21/16 157/21/92 154/21/90 
f 320/21/1 318/21/1 104/21/16 108/21/16 
f 107/21/16 109/21/16 322/21/1 319/21/1 
f 29/21/1 34/21/1 120/21/16 116/21/16 
f 115/21/16 113/21/16 25/21/1 30/21/1 
f 141/21/90 167/21/104 114/21/16 118/21/16 
f 117/21/16 119/21/16 145/21/92 142/21/90 
s 1
f 3/3/2 305/368/180 304/339/180 4/4/2 
s 2
f 345/343/214 366/369/215 346/344/215 349/347/218 
f 11/11/9 102/370/76 101/279/76 12/12/10 
f 19/19/14 333/330/202 306/288/181 20/20/15 
s 1
f 27/24/18 307/371/182 367/372/231 368/373/232 369/374/233 309/375/184 308/376/183 28/25/2 
f 31/28/19 313/377/187 312/348/187 32/29/2 
f 35/32/2 315/349/189 314/378/188 36/33/2 
f 43/40/26 303/379/179 318/380/1 44/41/2 
f 47/44/2 320/381/1 319/350/1 48/45/2 
f 51/48/2 322/351/1 321/382/1 52/49/2 
f 55/52/32 297/272/173 296/271/172 56/53/33 
s 4
f 353/355/221 370/383/222 354/356/222 357/359/224 
s 1
f 63/60/40 299/274/175 298/273/174 64/61/41 
f 67/64/44 371/384/234 301/276/177 68/65/45 
s 4
f 372/385/235 373/386/236 374/387/237 375/388/238 
s 1
f 75/72/51 376/389/239 300/275/176 76/73/52 
f 126/101/79 177/152/113 363/365/228 127/102/80 
f 134/109/85 192/167/119 377/390/240 135/110/86 
f 138/113/79 167/142/104 364/366/229 139/114/80 
f 146/121/85 173/148/109 378/391/241 147/122/86 
s 8
f 150/125/79 196/171/104 365/367/230 151/126/80 
f 158/133/85 187/162/116 379/392/242 159/134/86 
f 163/138/100 166/141/103 169/144/106 164/139/101 
f 138/113/79 137/112/88 172/147/108 170/145/100 
s 16
f 146/121/85 145/120/92 179/154/106 176/151/112 
f 126/101/79 125/100/78 175/150/111 180/155/100 
s 1
f 182/157/101 302/322/178 185/160/98 189/164/118 183/158/100 
f 158/133/85 157/132/92 191/166/106 190/165/112 
s 16
f 134/109/85 133/108/84 198/173/106 195/170/112 
f 150/125/79 149/124/94 194/169/121 199/174/100 
s 1
f 201/176/101 204/179/125 207/182/128 202/177/123 
f 208/183/100 210/185/130 211/186/131 209/184/129 
f 216/191/112 218/193/125 221/196/138 217/192/136 
f 222/197/100 212/187/132 215/190/135 223/198/139 
f 225/200/100 228/203/140 231/206/118 226/201/100 
f 232/207/112 234/209/125 235/210/106 233/208/112 
f 240/215/112 242/217/125 245/220/106 241/216/112 
f 246/221/100 236/211/142 239/214/121 247/222/100 
f 249/224/145 252/227/148 255/230/151 250/225/146 
f 256/231/152 258/233/154 259/234/155 257/232/153 
f 264/239/136 266/241/160 269/244/163 265/240/40 
f 270/245/139 260/235/156 263/238/159 271/246/41 
f 273/248/100 276/251/140 279/254/166 274/249/44 
f 280/255/112 282/257/125 283/258/167 281/256/45 
f 288/263/112 290/265/125 293/268/171 289/264/52 
f 294/269/100 284/259/142 287/262/169 295/270/51 
s 2
f 164/139/101 169/144/106 204/179/125 201/176/101 
f 170/145/100 172/147/108 210/185/130 208/183/100 
f 202/177/123 207/182/128 252/227/148 249/224/145 
f 209/184/129 211/186/131 258/233/154 256/231/152 
f 250/225/146 255/230/151 297/272/173 55/52/32 
f 257/232/153 259/234/155 53/50/30 56/53/33 
s 4
f 176/151/112 179/154/106 218/193/125 216/191/112 
f 180/155/100 175/150/111 212/187/132 222/197/100 
f 217/192/136 221/196/138 266/241/160 264/239/136 
f 223/198/139 215/190/135 260/235/156 270/245/139 
s 2
f 265/240/40 269/244/163 299/274/175 63/60/40 
f 271/246/41 263/238/159 61/58/38 64/61/41 
s 4
f 195/170/112 198/173/106 242/217/125 240/215/112 
f 199/174/100 194/169/121 236/211/142 246/221/100 
f 241/216/112 245/220/106 290/265/125 288/263/112 
f 247/222/100 239/214/121 284/259/142 294/269/100 
s 2
f 289/264/52 293/268/171 73/70/49 76/73/52 
f 295/270/51 287/262/169 376/389/239 75/72/51 
f 183/158/100 189/164/118 228/203/140 225/200/100 
f 190/165/112 191/166/106 234/209/125 232/207/112 
f 226/201/100 231/206/118 276/251/140 273/248/100 
f 233/208/112 235/210/106 282/257/125 280/255/112 
f 274/249/44 279/254/166 371/384/234 67/64/44 
f 281/256/45 283/258/167 65/62/42 68/65/45 
f 182/278/101 181/393/114 102/370/76 11/11/9 
f 43/281/26 42/394/25 9/9/7 12/12/10 
f 163/287/100 162/395/99 333/330/202 19/19/14 
f 27/290/18 26/396/17 17/17/13 20/20/15 
s 1
f 36/33/2 314/378/188 305/368/180 3/3/2 
f 52/49/2 321/382/1 1/1/1 4/4/2 
s 2
f 344/342/213 380/397/243 366/369/215 345/343/214 
f 348/346/217 381/398/244 382/399/245 349/347/218 
s 1
f 28/25/2 308/376/183 313/377/187 31/28/19 
f 35/32/2 34/31/1 29/26/1 32/29/2 
f 44/41/2 318/380/1 320/381/1 47/44/2 
f 51/48/2 50/47/29 45/42/27 48/45/2 
s 4
f 352/354/213 383/400/246 370/383/222 353/355/221 
f 356/358/217 384/401/247 385/402/248 357/359/224 
s 1
f 359/361/217 386/403/249 387/404/250 71/68/47 
f 362/364/213 388/405/251 69/66/46 72/69/48 
s 2
f 310/295/185 58/55/35 57/54/34 311/296/186 
f 317/312/191 316/311/190 374/387/237 373/386/236 
s 4
f 259/234/155 251/226/147 54/51/31 53/50/30 
s 1
f 263/238/159 262/237/158 62/59/39 61/58/38 
s 4
f 287/262/169 286/261/168 300/275/176 376/389/239 
f 279/254/166 278/253/165 301/276/177 371/384/234 
s 2
f 302/322/178 10/406/8 330/407/199 326/323/195 
f 326/323/195 330/407/199 332/408/201 327/324/196 
f 9/9/7 42/394/25 41/409/24 329/326/198 
f 329/326/198 41/409/24 40/410/23 331/328/200 
f 333/330/202 162/395/99 324/411/193 334/331/203 
f 334/331/203 324/411/193 323/412/192 336/333/205 
f 307/289/182 306/288/181 335/332/204 367/413/231 
f 367/413/231 335/332/204 337/334/206 368/414/232 
s 4
f 171/415/107 78/75/54 339/336/208 325/416/194 
f 325/416/194 339/336/208 336/333/205 323/412/192 
f 77/74/53 309/294/184 369/417/233 338/335/207 
f 338/335/207 369/417/233 368/414/232 337/334/206 
f 38/305/21 90/87/66 341/338/210 39/418/22 
f 39/418/22 341/338/210 331/328/200 40/410/23 
f 89/308/65 186/161/115 328/325/197 340/419/209 
f 340/419/209 328/325/197 327/324/196 332/408/201 
s 2
f 124/99/77 125/100/78 128/103/81 6/6/4 
f 377/390/240 192/167/119 123/98/77 5/5/3 
f 310/295/185 137/112/88 140/115/89 58/55/35 
f 378/391/241 173/148/109 311/296/186 57/54/34 
f 316/311/190 149/124/94 152/127/95 374/387/237 
f 379/392/242 187/162/116 317/312/191 373/386/236 
f 365/367/230 156/131/96 389/420/252 390/421/253 
f 156/131/96 155/130/96 391/422/254 389/420/252 
f 155/130/96 160/135/97 392/423/255 391/422/254 
s 8
f 160/135/97 159/134/86 393/424/256 392/423/255 
f 159/134/86 379/392/242 394/425/257 393/424/256 
s 1
f 379/392/242 373/386/236 387/404/250 386/403/249 395/426/258 394/425/257 
s 8
f 373/386/236 372/385/235 71/68/47 387/404/250 
s 2
f 372/385/235 375/388/238 72/69/48 71/68/47 
s 8
f 375/388/238 374/387/237 360/362/226 72/69/48 
s 1
f 374/387/237 152/127/95 396/427/259 397/428/260 361/363/227 360/362/226 
s 8
f 152/127/95 151/126/80 398/429/261 396/427/259 
f 151/126/80 365/367/230 390/421/253 398/429/261 
s 2
f 377/390/240 5/5/3 382/399/245 381/398/244 399/430/262 400/431/263 
s 4
f 5/5/3 8/8/6 349/347/218 382/399/245 
s 8
f 8/8/6 7/7/5 345/343/214 349/347/218 
s 4
f 7/7/5 6/6/4 342/340/211 345/343/214 
s 2
f 6/6/4 128/103/81 401/432/264 402/433/265 343/341/212 342/340/211 
s 1
f 128/103/81 127/102/80 403/434/266 401/432/264 
f 127/102/80 363/365/228 404/435/267 403/434/266 
s 8
f 363/365/228 132/107/83 405/436/268 404/435/267 
f 132/107/83 131/106/83 406/437/269 405/436/268 
f 131/106/83 136/111/87 407/438/270 406/437/269 
s 1
f 136/111/87 135/110/86 408/439/271 407/438/270 
f 135/110/86 377/390/240 400/431/263 408/439/271 
s 4
f 378/391/241 57/54/34 385/402/248 384/401/247 409/440/272 410/441/273 
s 8
f 57/54/34 60/57/37 357/359/224 385/402/248 
s 2
f 60/57/37 59/56/36 353/355/221 357/359/224 
s 8
f 59/56/36 58/55/35 350/352/219 353/355/221 
s 4
f 58/55/35 140/115/89 411/442/274 412/443/275 351/353/220 350/352/219 
s 1
f 140/115/89 139/114/80 413/444/276 411/442/274 
f 139/114/80 364/366/229 414/445/277 413/444/276 
s 2
f 364/366/229 144/119/91 415/446/278 414/445/277 
f 144/119/91 143/118/91 416/447/279 415/446/278 
f 143/118/91 148/123/93 417/448/280 416/447/279 
s 1
f 148/123/93 147/122/86 418/449/281 417/448/280 
f 147/122/86 378/391/241 410/441/273 418/449/281 
f 70/67/46 69/66/46 419/450/282 420/451/283 
s 2
f 344/342/213 343/341/212 402/433/265 421/452/284 
f 347/345/216 346/344/215 422/453/285 423/454/286 
f 348/346/217 347/345/216 423/454/286 424/455/287 
s 4
f 352/354/213 351/353/220 412/443/275 425/456/288 
f 355/357/223 354/356/222 426/457/289 427/458/290 
f 356/358/217 355/357/223 427/458/290 428/459/291 
s 1
f 358/360/225 70/67/46 420/451/283 429/460/292 
f 359/361/217 358/360/225 429/460/292 430/461/293 
f 362/364/213 361/363/227 397/428/260 431/462/294 
s 2
f 346/344/215 366/369/215 432/463/295 422/453/285 
s 4
f 354/356/222 370/383/222 433/464/296 426/457/289 
s 2
f 380/397/243 344/342/213 421/452/284 434/465/297 
f 366/369/215 380/397/243 434/465/297 432/463/295 
f 381/398/244 348/346/217 424/455/287 399/430/262 
s 4
f 383/400/246 352/354/213 425/456/288 435/466/298 
f 370/383/222 383/400/246 435/466/298 433/464/296 
f 384/401/247 356/358/217 428/459/291 409/440/272 
s 1
f 386/403/249 359/361/217 430/461/293 395/426/258 
f 388/405/251 362/364/213 431/462/294 436/467/299 
f 69/66/46 388/405/251 436/467/299 419/450/282 
s 2
f 390/421/253 389/420/252 419/450/282 436/467/299 
f 389/420/252 391/422/254 420/451/283 419/450/282 
f 391/422/254 392/423/255 429/460/292 420/451/283 
s 8
f 392/423/255 393/424/256 430/461/293 429/460/292 
f 393/424/256 394/425/257 395/426/258 430/461/293 
f 396/427/259 398/429/261 431/462/294 397/428/260 
f 398/429/261 390/421/253 436/467/299 431/462/294 
s 1
f 401/432/264 403/434/266 421/452/284 402/433/265 
f 403/434/266 404/435/267 434/465/297 421/452/284 
s 8
f 404/435/267 405/436/268 432/463/295 434/465/297 
f 405/436/268 406/437/269 422/453/285 432/463/295 
f 406/437/269 407/438/270 423/454/286 422/453/285 
s 1
f 407/438/270 408/439/271 424/455/287 423/454/286 
f 408/439/271 400/431/263 399/430/262 424/455/287 
f 411/442/274 413/444/276 425/456/288 412/443/275 
f 413/444/276 414/445/277 435/466/298 425/456/288 
s 2
f 414/445/277 415/446/278 433/464/296 435/466/298 
f 415/446/278 416/447/279 426/457/289 433/464/296 
f 416/447/279 417/448/280 427/458/290 426/457/289 
s 1
f 417/448/280 418/449/281 428/459/291 427/458/290 
f 418/449/281 410/441/273 409/440/272 428/459/291 
# 422 polygons

